<?xml version="1.0" standalone="no"?><!DOCTYPE svg PUBLIC "-//W3C//DTD SVG 1.1//EN" "http://www.w3.org/Graphics/SVG/1.1/DTD/svg11.dtd"><svg class="icon" width="200px" height="200.00px" viewBox="0 0 1024 1024" version="1.1" xmlns="http://www.w3.org/2000/svg"><path d="M640 768H384a8 8 0 0 1-8-8v-16.576c0-34.064-14.304-65.104-39.248-85.136-76.16-61.184-114.512-155.952-102.592-253.504 15.472-126.608 118.768-228.8 245.616-242.992 80.96-9.072 158.672 15.632 218.832 69.44A280.4 280.4 0 0 1 792 440 278.8 278.8 0 0 1 688 657.68c-25.408 20.56-40 51.808-40 85.696V760a8 8 0 0 1-8 8z m-248-16h240v-8.624c0-38.752 16.736-74.512 45.936-98.128A262.928 262.928 0 0 0 776 440c0-75.024-32.096-146.768-88.064-196.832-56.736-50.736-130-73.952-206.384-65.456-119.568 13.36-216.928 109.68-231.52 229.008-11.232 92.016 24.928 181.392 96.736 239.088 28.752 23.088 45.232 58.672 45.232 97.616V752z" fill="#263238" /><path d="M736 448a8 8 0 0 1-8-8C728 320.896 631.104 224 512 224a8 8 0 0 1 0-16c127.92 0 232 104.08 232 232a8 8 0 0 1-8 8z" fill="#263238" /><path d="M520 1000h-16A120 120 0 0 1 384 880v-120h256V880a120 120 0 0 1-120 120z" fill="#FFD740" /><path d="M520 1008h-16c-70.576 0-128-57.424-128-128v-120a8 8 0 0 1 8-8h256a8 8 0 0 1 8 8V880c0 70.576-57.424 128-128 128z m-128-240v112c0 61.76 50.24 112 112 112h16c61.76 0 112-50.24 112-112v-112h-240z" fill="#263238" /><path d="M640 832H384a8 8 0 0 1 0-16h256a8 8 0 0 1 0 16zM640 896H384a8 8 0 0 1 0-16h256a8 8 0 0 1 0 16zM514 128a8 8 0 0 1-8-8v-96a8 8 0 0 1 16 0v96a8 8 0 0 1-8 8zM192 448H96a8 8 0 0 1 0-16h96a8 8 0 0 1 0 16zM928 448h-96a8 8 0 0 1 0-16h96a8 8 0 0 1 0 16zM217.84 742.144a8 8 0 0 1-5.664-13.648l67.888-67.888a8 8 0 0 1 11.312 11.312l-67.888 67.888a7.968 7.968 0 0 1-5.648 2.336zM738.272 221.712a8 8 0 0 1-5.664-13.648l67.888-67.888a8 8 0 0 1 11.312 11.312l-67.888 67.888a7.904 7.904 0 0 1-5.648 2.336zM806.16 742.144a8.032 8.032 0 0 1-5.664-2.336l-67.888-67.888a8 8 0 0 1 11.312-11.312l67.888 67.888a8 8 0 0 1-5.648 13.648zM285.728 221.712a8.032 8.032 0 0 1-5.664-2.336l-67.888-67.888a8 8 0 0 1 11.312-11.312l67.888 67.888a8 8 0 0 1-5.648 13.648zM976 448h-16a8 8 0 0 1 0-16h16a8 8 0 0 1 0 16zM64 448H48a8 8 0 0 1 0-16h16a8 8 0 0 1 0 16z" fill="#263238" /><path d="M440 648l56-176h-96l184-176-56 176h96z" fill="#FFD740" /><path d="M440 656a8.016 8.016 0 0 1-7.632-10.432L485.056 480H400a8 8 0 0 1-5.536-13.776l184-176a8.016 8.016 0 0 1 13.152 8.208L538.944 464H624a8 8 0 0 1 5.536 13.776l-184 176A8.064 8.064 0 0 1 440 656z m-20.064-192H496a8 8 0 0 1 7.632 10.416l-46.496 146.112L604.064 480H528a8 8 0 0 1-7.632-10.416l46.496-146.112L419.936 464z" fill="#263238" /></svg>