<?xml version="1.0" standalone="no"?><!DOCTYPE svg PUBLIC "-//W3C//DTD SVG 1.1//EN" "http://www.w3.org/Graphics/SVG/1.1/DTD/svg11.dtd"><svg class="icon" width="200px" height="200.00px" viewBox="0 0 1024 1024" version="1.1" xmlns="http://www.w3.org/2000/svg"><path d="M744.448 248.0128a61.44 61.44 0 0 0-83.1488-25.3952L408.1664 357.2736a10.24 10.24 0 0 0-4.1984 13.824l124.928 235.008a10.24 10.24 0 0 0 13.824 4.3008l253.2352-134.656a61.44 61.44 0 0 0 25.3952-83.0464z" fill="#EB6456" /><path d="M538.0096 621.7728a20.48 20.48 0 0 1-18.1248-10.24l-125.0304-235.52a20.48 20.48 0 0 1-1.4336-15.6672 20.48 20.48 0 0 1 10.24-12.0832l252.8256-134.656a71.68 71.68 0 0 1 96.9728 29.5936l76.9024 144.6912a71.68 71.68 0 0 1-29.5936 96.9728L547.5328 619.4176a19.8656 19.8656 0 0 1-9.5232 2.3552zM690.0736 225.28a51.8144 51.8144 0 0 0-23.9616 5.9392L412.9792 366.2848l124.928 235.008 253.2352-134.5536a51.2 51.2 0 0 0 21.0944-69.2224l-76.9024-144.6912A51.2 51.2 0 0 0 690.0736 225.28z" fill="#5F3104" /><path d="M477.184 320.53248l160.29696-85.23776L772.096 488.448l-160.29696 85.23776z" fill="#FFB94A" /><path d="M607.5392 587.5712L463.36 316.3136l178.3808-94.9248 144.1792 271.2576zM491.52 324.7104l125.0304 235.52 142.2336-75.5712-125.0304-235.52z" fill="#5F3104" /><path d="M481.28 318.2592l-73.216 39.0144a10.24 10.24 0 0 0-4.1984 13.824l124.928 235.008a10.24 10.24 0 0 0 13.824 4.3008l73.3184-39.0144z" fill="#FF9C00" /><path d="M538.0096 621.8752a20.48 20.48 0 0 1-6.0416-0.9216 20.48 20.48 0 0 1-12.0832-10.24l-125.0304-235.52a20.48 20.48 0 0 1-1.4336-15.6672 20.48 20.48 0 0 1 10.24-12.0832l81.92-43.7248 144.2816 271.9744-81.92 43.7248a19.6608 19.6608 0 0 1-9.9328 2.4576zM477.184 332.1856l-64.2048 34.0992 124.928 235.008 64.2048-34.0992z" fill="#5F3104" /><path d="M844.8 619.52a61.44 61.44 0 0 0-61.44-61.44h-286.72a10.24 10.24 0 0 0-10.24 10.24v266.24a10.24 10.24 0 0 0 10.24 10.24h286.72a61.44 61.44 0 0 0 61.44-61.44z" fill="#FFB94A" /><path d="M783.36 855.04h-286.72a20.48 20.48 0 0 1-20.48-20.48v-266.24a20.48 20.48 0 0 1 20.48-20.48h286.72a71.68 71.68 0 0 1 71.68 71.68v163.84a71.68 71.68 0 0 1-71.68 71.68z m-286.72-286.72v266.24h286.72a51.2 51.2 0 0 0 51.2-51.2v-163.84a51.2 51.2 0 0 0-51.2-51.2z" fill="#5F3104" /><path d="M571.904 558.08h187.2896v286.72H571.904z" fill="#EB6456" /><path d="M769.536 855.04h-207.872v-307.2h207.872z m-187.392-20.48h166.912v-266.24h-166.912z" fill="#5F3104" /><path d="M575.8976 558.08H496.64a10.24 10.24 0 0 0-10.24 10.24v266.24a10.24 10.24 0 0 0 10.24 10.24h79.2576z" fill="#FF1C05" /><path d="M586.1376 855.04H496.64a20.48 20.48 0 0 1-20.48-20.48v-266.24a20.48 20.48 0 0 1 20.48-20.48h89.4976z m-89.4976-286.72v266.24h69.0176v-266.24z" fill="#5F3104" /><path d="M266.24 163.84a61.44 61.44 0 0 0-61.44 61.44v604.16a10.24 10.24 0 0 0 10.24 10.24h266.24a10.24 10.24 0 0 0 10.24-10.24V225.28a61.44 61.44 0 0 0-61.44-61.44z" fill="#D8D8D8" /><path d="M481.28 849.92H215.04a20.48 20.48 0 0 1-20.48-20.48V225.28a71.68 71.68 0 0 1 71.68-71.68h163.84a71.68 71.68 0 0 1 71.68 71.68v604.16a20.48 20.48 0 0 1-20.48 20.48zM266.24 174.08a51.2 51.2 0 0 0-51.2 51.2v604.16h266.24V225.28a51.2 51.2 0 0 0-51.2-51.2z" fill="#5F3104" /><path d="M394.24 638.976a10.24 10.24 0 0 1-10.24-10.24V282.624a10.24 10.24 0 1 1 20.48 0v346.112a10.24 10.24 0 0 1-10.24 10.24zM399.36 747.52a10.24 10.24 0 0 1-10.24-10.24v-30.72a10.24 10.24 0 0 1 20.48 0v30.72a10.24 10.24 0 0 1-10.24 10.24z" fill="#5F3104" /></svg>