<?xml version="1.0" standalone="no"?><!DOCTYPE svg PUBLIC "-//W3C//DTD SVG 1.1//EN" "http://www.w3.org/Graphics/SVG/1.1/DTD/svg11.dtd"><svg class="icon" width="200px" height="200.00px" viewBox="0 0 1024 1024" version="1.1" xmlns="http://www.w3.org/2000/svg"><path d="M512 512m-512 0a512 512 0 1 0 1024 0 512 512 0 1 0-1024 0Z" fill="#B7EB81" /><path d="M414.42304 696.2688a224.24576 224.24576 0 0 1-130.048-37.91872l-53.1456 31.88736c-19.42528 11.66336-31.98976 3.09248-28.0576-19.21024l14.45888-82.0224A224.256 224.256 0 0 1 184.32 471.04c0-124.44672 100.864-225.28 225.28-225.28 55.296 0 105.9328 19.9168 145.13152 52.96128C438.29248 312.9856 348.16 412.20096 348.16 532.48a234.73152 234.73152 0 0 0 66.26304 163.7888z" fill="#00BB74" /><path d="M784.37376 655.81056l15.45216 87.62368c3.91168 22.17984-8.6016 30.86336-27.9552 19.23072l-57.27232-34.36544A234.43456 234.43456 0 0 1 583.68 768c-130.07872 0-235.52-105.4208-235.52-235.52 0-130.07872 105.4208-235.52 235.52-235.52 130.07872 0 235.52 105.4208 235.52 235.52 0 45.21984-12.73856 87.45984-34.82624 123.33056zM450.56 532.48c0 16.92672 13.75232 30.72 30.72 30.72 16.92672 0 30.72-13.75232 30.72-30.72 0-16.92672-13.75232-30.72-30.72-30.72-16.92672 0-30.72 13.75232-30.72 30.72z m102.4 0c0 16.92672 13.75232 30.72 30.72 30.72 16.92672 0 30.72-13.75232 30.72-30.72 0-16.92672-13.75232-30.72-30.72-30.72-16.92672 0-30.72 13.75232-30.72 30.72z m102.4 0c0 16.92672 13.75232 30.72 30.72 30.72 16.92672 0 30.72-13.75232 30.72-30.72 0-16.92672-13.75232-30.72-30.72-30.72-16.92672 0-30.72 13.75232-30.72 30.72z" fill="#FFFFFF" /></svg>