<svg xmlns="http://www.w3.org/2000/svg" viewBox="0 0 48 48"><path fill="#ffa726" d="M12,21.5c0,0.828-0.672,1.5-1.5,1.5S9,22.328,9,21.5S9.672,20,10.5,20S12,20.672,12,21.5"/><path fill="#ff9800" d="M16,32c-3,0-3-3-3-3v-4h6v4C19,29,19,32,16,32z"/><path fill="#ffa726" d="M23,21.5c0,0.828-0.672,1.5-1.5,1.5c-0.829,0-1.5-0.672-1.5-1.5s0.671-1.5,1.5-1.5 C22.328,20,23,20.672,23,21.5"/><path fill="#ffb74d" d="M22,17.088c0-4.934-12-3.213-12,0v5.095C10,25.393,12.685,28,16,28c3.314,0,6-2.607,6-5.817V17.088z"/><path fill="#6d4c41" d="M16,11c-4.253,0-7,3.773-7,7.15V20l2,2v-3l8-3l2,2v4l2-2v-0.958c0-2.816-0.727-5.952-4.2-6.643L18,11 H16z"/><path fill="#784719" d="M12.5 21.25c0-.413.336-.75.75-.75S14 20.837 14 21.25 13.664 22 13.25 22 12.5 21.663 12.5 21.25M18 21.25c0 .413.336.75.75.75s.75-.337.75-.75-.336-.75-.75-.75S18 20.837 18 21.25"/><path fill="#fff" d="M16 38L13 29 16 30 19 29z"/><path fill="#d32f2f" d="M15.5 32L15 35 16 39 17 35 16.5 32 17 31 16 30 15 31z"/><path fill="#3f51b5" d="M19,29l-3,9l-3-9c0,0-8,1.428-8,9l0,2h22v-2c0-7.545-7.563-8.938-7.563-8.938"/><path fill="#ef8d3c" d="M39 15.5c0 .828-.672 1.5-1.5 1.5-.829 0-1.5-.672-1.5-1.5 0-.828.671-1.5 1.5-1.5C38.328 14 39 14.672 39 15.5M28 15.5c0 .828-.672 1.5-1.5 1.5S25 16.328 25 15.5c0-.828.672-1.5 1.5-1.5S28 14.672 28 15.5M32 26c-3 0-3-3-3-3v-4h6v4C35 23 35 26 32 26z"/><path fill="#ffaa45" d="M38.089,11.154c0-5.039-12-3.281-12,0v5.203c0,3.278,2.685,5.94,6,5.94c3.314,0,6-2.662,6-5.94 V11.154z"/><path fill="#424242" d="M32,5c-4.253,0-7,3.773-7,7.15V14l2,2v-3l8-3l2,2v4l2-2v-0.958c0-2.816-0.727-5.952-4.2-6.643 L34.099,5H32z"/><path fill="#784719" d="M28.5 15.25c0-.413.336-.75.75-.75S30 14.837 30 15.25 29.664 16 29.25 16 28.5 15.663 28.5 15.25M34 15.25c0 .413.336.75.75.75s.75-.337.75-.75-.336-.75-.75-.75S34 14.837 34 15.25"/><path fill="#fff" d="M32 32L29 23 32 24 35 23z"/><path fill="#d32f2f" d="M31.5 26L31 29 32 32 33 29 32.5 26 33 25 32 24 31 25z"/><path fill="#1a237e" d="M35,23l-3,9l-3-9c0,0-8,1.428-8,9l0,2h22v-2c0-7.545-7.563-8.938-7.563-8.938"/><path fill="#d1c4e9" d="M46,48H22c-1.105,0-2-0.895-2-2V33c0-1.105,0.895-2,2-2h24c1.105,0,2,0.895,2,2v13 C48,47.105,47.105,48,46,48z"/><path fill="#512da8" d="M27.788 41.2c0-.363-.093-.638-.279-.823-.187-.186-.524-.379-1.016-.579-.896-.339-1.541-.735-1.933-1.191-.393-.455-.589-.993-.589-1.613 0-.752.267-1.354.801-1.81.534-.456 1.212-.684 2.035-.684.549 0 1.037.116 1.467.346.43.231.761.556.991.977.231.421.347.899.347 1.433h-1.799c0-.417-.089-.734-.267-.952-.178-.218-.435-.327-.77-.327-.315 0-.561.093-.736.279-.176.186-.264.436-.264.751 0 .245.098.467.295.665s.544.402 1.043.615c.872.314 1.505.7 1.9 1.157.395.458.593 1.039.593 1.745 0 .776-.248 1.382-.743 1.819s-1.168.655-2.019.655c-.577 0-1.103-.118-1.578-.355-.475-.236-.846-.576-1.114-1.017-.268-.441-.402-.961-.402-1.561h1.811c0 .514.101.888.301 1.121.2.233.528.349.982.349C27.473 42.198 27.788 41.865 27.788 41.2zM37.838 39.763c0 1.478-.399 2.552-1.197 3.223l1.234 1.104-1.136 1.043-1.645-1.504-.472.031c-1.01 0-1.801-.343-2.372-1.029-.571-.685-.858-1.633-.862-2.845v-1.4c0-1.227.285-2.186.853-2.876.568-.69 1.359-1.034 2.37-1.034.987 0 1.765.331 2.338.994s.87 1.594.89 2.793V39.763zM36.028 38.376c0-.814-.117-1.416-.35-1.805-.233-.389-.589-.583-1.068-.583s-.832.189-1.062.567c-.229.379-.348.955-.356 1.729v1.479c0 .818.118 1.422.353 1.811s.594.583 1.078.583c.471 0 .822-.193 1.053-.58.231-.386.349-.977.353-1.771L36.028 38.376 36.028 38.376zM42 42.26h3v1.5h-4.875v-8.875H42V42.26z"/></svg>