<svg xmlns="http://www.w3.org/2000/svg" viewBox="0 0 100 100"><path fill="#c8ede6" d="M87.234,55.551c0.3-0.616,0.566-1.264,0.796-1.943c2.633-7.77-1.349-17.078-9.733-19.325 C77.391,22.9,69.391,15.09,60.356,13.758c-10.341-1.525-19.814,5.044-22.966,15.485c-3.799-1.346-7.501-1.182-10.99,0.857 c-1.583,0.732-3.031,1.812-4.33,3.233c-1.907,2.086-3.147,4.719-3.652,7.495c-0.748,0.118-1.483,0.236-2.176,0.484 c-4.04,1.449-6.589,4.431-7.288,8.923c-0.435,2.797,0.443,5.587,0.933,6.714c1.935,4.455,6.422,6.98,10.981,6.312 c0.227-0.033,0.557,0.069,0.752,0.233c0.241,7.12,3.698,13.417,8.884,17.014c8.321,5.772,19.027,3.994,25.781-3.921 c2.894,2.96,6.338,4.398,10.384,3.876c4.023-0.519,7.147-2.739,9.426-6.349c1.053,0.283,2.051,0.691,3.083,0.804 c4.042,0.442,7.297-1.184,9.732-4.8c0.083-0.124,0.203-0.219,0.306-0.328c0.348-0.798,0.696-1.596,1.044-2.394 c0.155-1.211,0.429-2.423,0.443-3.632C90.742,60.508,89.411,57.54,87.234,55.551z"/><path fill="#fff" d="M12.899 53H2.869c-.276 0-.5-.224-.5-.5s.224-.5.5-.5h10.03c.276 0 .5.224.5.5S13.176 53 12.899 53zM16.28 52.5c0-.276-.224-.5-.5-.5h-1.446c-.276 0-.5.224-.5.5s.224.5.5.5h1.446C16.057 53 16.28 52.776 16.28 52.5zM20.335 52.5c0-.276-.224-.5-.5-.5h-2.546c-.276 0-.5.224-.5.5s.224.5.5.5h2.546C20.112 53 20.335 52.776 20.335 52.5zM20.335 54.5c0-.276-.224-.5-.5-.5h-9.616c-.276 0-.5.224-.5.5s.224.5.5.5h9.616C20.112 55 20.335 54.776 20.335 54.5zM8.987 54.5c0-.276-.224-.5-.5-.5h-.58c-.276 0-.5.224-.5.5s.224.5.5.5h.58C8.763 55 8.987 54.776 8.987 54.5zM6.611 54.5c0-.276-.224-.5-.5-.5H4.654c-.276 0-.5.224-.5.5s.224.5.5.5h1.457C6.387 55 6.611 54.776 6.611 54.5zM15.746 50.5c0-.276-.224-.5-.5-.5h-5.027c-.276 0-.5.224-.5.5s.224.5.5.5h5.027C15.523 51 15.746 50.776 15.746 50.5zM15.746 48.5c0-.276-.224-.5-.5-.5h-1.257c-.276 0-.5.224-.5.5s.224.5.5.5h1.257C15.523 49 15.746 48.776 15.746 48.5zM12.477 56.5c0-.276-.224-.5-.5-.5h-1.758c-.276 0-.5.224-.5.5s.224.5.5.5h1.758C12.254 57 12.477 56.776 12.477 56.5zM68.744 23h-10.03c-.276 0-.5-.224-.5-.5s.224-.5.5-.5h10.031c.276 0 .5.224.5.5S69.021 23 68.744 23zM72.125 22.5c0-.276-.224-.5-.5-.5h-1.446c-.276 0-.5.224-.5.5s.224.5.5.5h1.446C71.902 23 72.125 22.776 72.125 22.5zM76.18 22.5c0-.276-.224-.5-.5-.5h-2.546c-.276 0-.5.224-.5.5s.224.5.5.5h2.546C75.956 23 76.18 22.776 76.18 22.5zM74.154 18.5c0-.276-.224-.5-.5-.5h-9.616c-.276 0-.5.224-.5.5s.224.5.5.5h9.616C73.93 19 74.154 18.776 74.154 18.5zM62.806 18.5c0-.276-.224-.5-.5-.5h-.58c-.276 0-.5.224-.5.5s.224.5.5.5h.58C62.583 19 62.806 18.776 62.806 18.5zM60.429 18.5c0-.276-.224-.5-.5-.5h-1.456c-.276 0-.5.224-.5.5s.224.5.5.5h1.456C60.206 19 60.429 18.776 60.429 18.5zM71.591 20.5c0-.276-.224-.5-.5-.5h-5.027c-.276 0-.5.224-.5.5s.224.5.5.5h5.027C71.367 21 71.591 20.776 71.591 20.5zM71.591 18.5c0-.276-.224-.5-.5-.5h-1.257c-.276 0-.5.224-.5.5s.224.5.5.5h1.257C71.367 19 71.591 18.776 71.591 18.5zM65.108 20.5c0-.276-.224-.5-.5-.5H62.85c-.276 0-.5.224-.5.5s.224.5.5.5h1.758C64.885 21 65.108 20.776 65.108 20.5z"/><path fill="#fdfcef" d="M27.337,39.423c0,0,11.691,0,11.762,0c2.7,0,4.888-2.189,4.888-4.889 c0-2.355-1.666-4.321-3.884-4.784c0.026-0.206,0.043-0.415,0.043-0.628c0-2.796-2.267-5.063-5.063-5.063 c-1.651,0-3.113,0.794-4.037,2.017c-0.236-3.113-3.017-5.514-6.27-5.116c-2.379,0.291-4.346,2.13-4.784,4.486 c-0.14,0.756-0.126,1.489,0.014,2.177c-0.638-0.687-1.546-1.119-2.557-1.119c-1.85,0-3.361,1.441-3.48,3.261 c-0.84-0.186-1.754-0.174-2.717,0.188c-1.84,0.691-3.15,2.423-3.227,4.387c-0.109,2.789,2.12,5.085,4.885,5.085 c0.21,0,0.948,0,1.118,0h10.151"/><path fill="#472b29" d="M39.099,39.923H27.337c-0.276,0-0.5-0.224-0.5-0.5s0.224-0.5,0.5-0.5h11.762 c2.42,0,4.389-1.969,4.389-4.389c0-2.066-1.466-3.873-3.486-4.295c-0.255-0.053-0.426-0.293-0.394-0.552 c0.023-0.186,0.039-0.374,0.039-0.565c0-2.517-2.047-4.563-4.562-4.563c-1.438,0-2.765,0.663-3.638,1.818 c-0.125,0.166-0.338,0.237-0.54,0.178c-0.199-0.059-0.342-0.234-0.357-0.441c-0.104-1.377-0.779-2.671-1.85-3.549 c-1.083-0.888-2.456-1.282-3.86-1.109c-2.166,0.266-3.956,1.943-4.353,4.081c-0.124,0.667-0.12,1.335,0.013,1.986 c0.044,0.22-0.062,0.442-0.262,0.544c-0.2,0.104-0.443,0.06-0.595-0.104c-0.575-0.618-1.353-0.959-2.19-0.959 c-1.569,0-2.878,1.228-2.981,2.794c-0.01,0.146-0.082,0.279-0.199,0.366c-0.117,0.089-0.268,0.12-0.408,0.089 c-0.841-0.185-1.637-0.132-2.433,0.167c-1.669,0.627-2.835,2.209-2.903,3.938c-0.047,1.207,0.387,2.35,1.221,3.218 c0.835,0.869,1.959,1.348,3.164,1.348h11.269c0.276,0,0.5,0.224,0.5,0.5s-0.224,0.5-0.5,0.5H12.912 c-1.479,0-2.858-0.588-3.884-1.654c-1.025-1.066-1.558-2.469-1.5-3.95c0.083-2.126,1.51-4.069,3.55-4.835 c0.8-0.301,1.626-0.398,2.468-0.299c0.377-1.822,1.998-3.182,3.905-3.182c0.684,0,1.354,0.18,1.944,0.51 c0-0.386,0.035-0.772,0.106-1.159c0.477-2.562,2.621-4.573,5.215-4.891c1.679-0.205,3.32,0.266,4.616,1.328 c1.003,0.823,1.716,1.951,2.038,3.193c1.012-0.916,2.319-1.426,3.714-1.426c3.067,0,5.562,2.496,5.562,5.563 c0,0.083-0.002,0.166-0.007,0.248c2.254,0.673,3.848,2.776,3.848,5.164C44.488,37.507,42.071,39.923,39.099,39.923z"/><path fill="#fdfcef" d="M24.504,28.655c-1.808-0.119-3.365,1.13-3.476,2.789c-0.014,0.206-0.005,0.409,0.025,0.606 c-0.349-0.394-0.865-0.661-1.458-0.7c-1.085-0.071-2.022,0.645-2.158,1.62c-0.197-0.054-0.403-0.09-0.616-0.104 c-1.582-0.104-2.944,0.989-3.042,2.441"/><path fill="#472b29" d="M13.78,35.556c-0.006,0-0.012,0-0.017-0.001c-0.138-0.009-0.242-0.128-0.233-0.266 c0.107-1.587,1.588-2.789,3.308-2.674c0.137,0.009,0.273,0.026,0.409,0.053c0.274-0.968,1.256-1.645,2.366-1.567 c0.425,0.027,0.823,0.159,1.164,0.382c0-0.019,0.002-0.037,0.003-0.056c0.12-1.795,1.787-3.16,3.742-3.021 c0.138,0.009,0.242,0.128,0.233,0.266s-0.124,0.255-0.266,0.232c-1.651-0.105-3.108,1.037-3.21,2.557 c-0.012,0.184-0.004,0.37,0.023,0.553c0.017,0.109-0.041,0.217-0.141,0.264s-0.219,0.022-0.293-0.061 c-0.323-0.365-0.78-0.584-1.287-0.617c-0.951-0.034-1.775,0.556-1.894,1.404c-0.01,0.071-0.05,0.135-0.11,0.175 c-0.06,0.039-0.133,0.051-0.204,0.032c-0.187-0.051-0.377-0.083-0.567-0.097c-1.44-0.092-2.687,0.896-2.775,2.209 C14.02,35.455,13.91,35.556,13.78,35.556z"/><path fill="#fdfcef" d="M41.079,30.323c-1.699-0.801-3.664-0.234-4.389,1.267c-0.09,0.186-0.157,0.379-0.201,0.574"/><path fill="#472b29" d="M36.489,32.414c-0.018,0-0.037-0.002-0.056-0.006c-0.134-0.031-0.219-0.165-0.188-0.3 c0.049-0.217,0.123-0.428,0.219-0.627c0.783-1.621,2.902-2.239,4.721-1.385c0.125,0.06,0.179,0.208,0.12,0.333 c-0.059,0.126-0.209,0.176-0.333,0.12c-1.574-0.744-3.394-0.227-4.058,1.149c-0.08,0.165-0.141,0.34-0.182,0.521 C36.706,32.336,36.603,32.414,36.489,32.414z"/><path fill="#81e9ef" d="M42,67.946l-14.848,4.646c-0.111,0.034-0.225,0.052-0.337,0.052c-0.615,0-1.115-0.502-1.115-1.119 V33.657c0-0.491,0.315-0.921,0.784-1.067l15.182-4.752c0.108-0.033,0.221-0.051,0.334-0.051s0.226,0.018,0.334,0.051l15.915,4.98 c0.244,0.076,0.497,0.115,0.752,0.115s0.508-0.039,0.752-0.115l14.095-4.411c0.111-0.034,0.225-0.052,0.337-0.052 c0.615,0,1.115,0.502,1.115,1.119v37.868c0,0.491-0.315,0.921-0.784,1.067l-15.514,4.856L42,67.946z"/><path fill="#472b29" d="M42,28.487c0.042,0,0.084,0.006,0.125,0.019l15.914,4.98c0.312,0.098,0.635,0.147,0.962,0.147 s0.65-0.049,0.961-0.147l14.095-4.411c0.043-0.013,0.086-0.021,0.128-0.021c0.2,0,0.415,0.161,0.415,0.42v37.868 c0,0.184-0.118,0.344-0.293,0.399l-15.305,4.791l-16.584-5.19L42,67.212l-0.418,0.131l-14.639,4.582 c-0.043,0.013-0.086,0.021-0.128,0.021c-0.2,0-0.415-0.161-0.415-0.42V33.657c0-0.184,0.118-0.344,0.293-0.399l15.182-4.752 C41.916,28.493,41.958,28.487,42,28.487 M42,27.087c-0.183,0-0.366,0.027-0.543,0.083l-15.182,4.752 C25.516,32.159,25,32.862,25,33.657v37.868c0,1.035,0.847,1.82,1.815,1.82c0.18,0,0.363-0.027,0.546-0.084L42,68.679L59,74v0 l0.001,0l0.001,0v0l15.723-4.921C75.484,68.841,76,68.138,76,67.343V29.475c0-1.035-0.847-1.82-1.815-1.82 c-0.18,0-0.363,0.027-0.546,0.084L59.544,32.15c-0.177,0.055-0.36,0.083-0.543,0.083s-0.366-0.028-0.543-0.083l-15.915-4.98 C42.366,27.114,42.183,27.087,42,27.087L42,27.087z"/><path fill="#56b5ef" d="M42,67.946l-14.848,4.646c-0.111,0.034-0.225,0.052-0.337,0.052c-0.615,0-1.115-0.502-1.115-1.119 V33.657c0-0.491,0.315-0.921,0.784-1.067l15.182-4.752c0.108-0.033,0.221-0.051,0.334-0.051s0.226,0.018,0.334,0.051l15.915,4.98 c0.244,0.076,0.497,0.115,0.752,0.115s0.508-0.039,0.752-0.115l14.095-4.411c0.111-0.034,0.225-0.052,0.337-0.052 c0.615,0,1.115,0.502,1.115,1.119v37.868c0,0.491-0.315,0.921-0.784,1.067l-15.514,4.856L42,67.946z"/><path fill="#472b29" d="M42,28.487c0.042,0,0.084,0.006,0.125,0.019l15.914,4.98c0.312,0.098,0.635,0.147,0.962,0.147 s0.65-0.049,0.961-0.147l14.095-4.411c0.043-0.013,0.086-0.021,0.128-0.021c0.2,0,0.415,0.161,0.415,0.42v37.868 c0,0.184-0.118,0.344-0.293,0.399l-15.305,4.791l-16.584-5.19L42,67.212l-0.418,0.131l-14.639,4.582 c-0.043,0.013-0.086,0.021-0.128,0.021c-0.2,0-0.415-0.161-0.415-0.42V33.657c0-0.184,0.118-0.344,0.293-0.399l15.182-4.752 C41.916,28.493,41.958,28.487,42,28.487 M42,27.087c-0.183,0-0.366,0.027-0.543,0.083l-15.182,4.752 C25.516,32.159,25,32.862,25,33.657v37.868c0,1.035,0.847,1.82,1.815,1.82c0.18,0,0.363-0.027,0.546-0.084L42,68.679L59,74v0 l0.001,0l0.001,0v0l15.723-4.921C75.484,68.841,76,68.138,76,67.343V29.475c0-1.035-0.847-1.82-1.815-1.82 c-0.18,0-0.363,0.027-0.546,0.084L59.544,32.15c-0.177,0.055-0.36,0.083-0.543,0.083s-0.366-0.028-0.543-0.083l-15.915-4.98 C42.366,27.114,42.183,27.087,42,27.087L42,27.087z"/><path fill="#81e9ef" d="M41.5 67.096L58.5 72.417 58.5 33.737 41.5 28.417z"/><path fill="#00ac9c" d="M56.61,56.093c-0.174-0.34-0.479-0.547-0.809-0.547h-1.138c-0.265,0-0.534,0.144-0.715,0.382 c-0.261,0.345-0.391,0.632-0.232,2.938c0.03,0.447,0.272,0.832,0.62,0.987c0.106,0.047,0.218,0.07,0.327,0.07 c0.248,0,0.492-0.118,0.672-0.338l0.487-0.59c0.126-0.151,0.229-0.326,0.314-0.527l0.516-1.253 C56.799,56.857,56.784,56.432,56.61,56.093z"/><path fill="#472b29" d="M54.662,60.173c-0.146,0-0.29-0.031-0.428-0.092c-0.431-0.191-0.732-0.661-0.769-1.199 c-0.157-2.29-0.048-2.671,0.282-3.105c0.229-0.301,0.571-0.48,0.914-0.48h1.139c0.421,0,0.815,0.262,1.031,0.683l0,0 c0.208,0.406,0.227,0.904,0.051,1.332l-0.517,1.253c-0.095,0.226-0.214,0.424-0.353,0.592l-0.487,0.589 C55.304,60.017,54.988,60.173,54.662,60.173z M54.662,55.796c-0.186,0-0.383,0.108-0.516,0.283 c-0.198,0.261-0.342,0.449-0.183,2.769c0.024,0.355,0.21,0.66,0.473,0.776c0.246,0.11,0.519,0.029,0.704-0.197l0.488-0.591 c0.109-0.132,0.199-0.283,0.275-0.465l0.516-1.252c0.12-0.289,0.107-0.639-0.033-0.912l0,0c-0.132-0.258-0.351-0.411-0.586-0.411 H54.662z"/><path fill="#00ac9c" d="M69.006,65.625c0.181,0,0.375-0.04,0.574-0.12c0.106-0.044,0.206-0.108,0.294-0.194l0.558-0.542 c0.062-0.061,0.118-0.13,0.166-0.209l0.336-0.542c0.124-0.199,0.19-0.443,0.19-0.692v-1.219c0-0.497-0.261-0.936-0.65-1.094 c-0.389-0.156-0.815,0.006-1.061,0.402l-0.296,0.477l-0.957,1.16c-0.105,0.127-0.183,0.281-0.23,0.452 c-0.188,0.687-0.104,1.314,0.228,1.719C68.377,65.489,68.672,65.625,69.006,65.625z"/><path fill="#472b29" d="M69.007,65.875c-0.416,0-0.776-0.17-1.041-0.491c-0.385-0.469-0.485-1.178-0.276-1.943 c0.059-0.209,0.152-0.392,0.278-0.546l0.958-1.16l0.274-0.449c0.313-0.504,0.866-0.704,1.367-0.503 c0.483,0.196,0.808,0.729,0.808,1.326v1.219c0,0.295-0.081,0.587-0.229,0.823l-0.334,0.542c-0.058,0.091-0.125,0.176-0.203,0.254 l-0.561,0.545c-0.109,0.105-0.234,0.188-0.372,0.245C69.445,65.828,69.221,65.875,69.007,65.875z M70.174,61.205 c-0.209,0-0.411,0.122-0.549,0.344l-0.294,0.477l-0.978,1.188c-0.082,0.1-0.144,0.221-0.182,0.36 c-0.166,0.606-0.1,1.151,0.181,1.493c0.265,0.319,0.664,0.395,1.136,0.206c0.077-0.031,0.149-0.079,0.213-0.141l0.558-0.542 c0.048-0.048,0.093-0.104,0.129-0.162l0.334-0.541c0.099-0.158,0.153-0.357,0.153-0.56v-1.219c0-0.396-0.198-0.742-0.494-0.862 C70.313,61.219,70.242,61.205,70.174,61.205z"/><path fill="#00ac9c" d="M64.524,51.33c0.166,0.401,0.5,0.636,0.852,0.636c0.117,0,0.237-0.027,0.353-0.083l0.683-0.332 c0.312-0.15,0.585-0.399,0.789-0.719l0.796-1.242c0.42-0.655,0.514-1.537,0.244-2.3l-0.336-0.95 c-0.137-0.389-0.439-0.655-0.786-0.694c-0.356-0.035-0.685,0.157-0.879,0.508l-0.761,1.386c-0.097,0.195-0.236,0.451-0.339,0.62 c-0.41,0.099-1.002,0.352-1.219,0.987c-0.16,0.466-0.069,1.001,0.204,1.331C64.191,50.58,64.381,50.985,64.524,51.33z"/><path fill="#472b29" d="M65.376,52.216c-0.467,0-0.882-0.303-1.084-0.79c-0.15-0.364-0.33-0.739-0.378-0.813 c-0.314-0.376-0.415-1.008-0.229-1.546c0.185-0.541,0.642-0.937,1.293-1.122c0.092-0.157,0.199-0.357,0.278-0.516l0.766-1.395 c0.243-0.444,0.659-0.679,1.121-0.638c0.447,0.051,0.828,0.38,0.997,0.86l0.336,0.95c0.296,0.833,0.192,1.798-0.27,2.518 l-0.795,1.242c-0.229,0.359-0.538,0.64-0.892,0.81l-0.682,0.331C65.69,52.18,65.535,52.216,65.376,52.216z M64.755,51.234 c0.16,0.391,0.535,0.579,0.864,0.424l0.683-0.332c0.271-0.13,0.509-0.348,0.688-0.629l0.796-1.242 c0.381-0.593,0.465-1.391,0.22-2.081l-0.336-0.951c-0.105-0.298-0.327-0.501-0.579-0.529c-0.247-0.005-0.486,0.119-0.631,0.381 l-0.761,1.386c-0.096,0.193-0.238,0.456-0.346,0.631l-0.054,0.088l-0.101,0.024c-0.378,0.092-0.865,0.31-1.041,0.825 c-0.128,0.374-0.063,0.821,0.16,1.089C64.42,50.475,64.624,50.918,64.755,51.234L64.755,51.234z"/><g><path fill="#00ac9c" d="M63.145,52.976c-0.147,0.431-0.066,0.927,0.206,1.257c0.938,1.138,1.277,1.23,1.594,1.23h1.841 c0.404,0,0.764-0.309,0.897-0.771c0.133-0.462,0.012-0.977-0.302-1.282l-0.665-0.646c-0.333-0.323-0.75-0.5-1.176-0.5h-1.515 C63.639,52.265,63.292,52.545,63.145,52.976z"/><path fill="#472b29" d="M66.785,55.713h-1.841c-0.462,0-0.865-0.204-1.785-1.32c-0.328-0.397-0.427-0.984-0.251-1.497 c0.183-0.534,0.62-0.881,1.115-0.882h1.516c0.491,0,0.971,0.203,1.35,0.57l0.665,0.646c0.379,0.367,0.526,0.981,0.369,1.53 C67.758,55.33,67.301,55.713,66.785,55.713z M64.024,52.514c-0.278,0.001-0.53,0.214-0.644,0.544l0,0 c-0.118,0.346-0.053,0.755,0.163,1.017c0.939,1.139,1.206,1.139,1.4,1.139h1.841c0.291,0,0.555-0.237,0.657-0.591 c0.108-0.376,0.013-0.791-0.236-1.032l-0.665-0.646c-0.285-0.277-0.642-0.43-1.002-0.43H64.024z"/></g><g><path fill="#00ac9c" d="M48.368,39.218c0.14,0,0.281-0.035,0.411-0.103c0.258-0.024,0.943,0.012,1.559,0.086 c0.442,0.052,0.821-0.243,0.977-0.719l0.368-1.116c0.106-0.324,0.087-0.689-0.055-0.994c-0.142-0.304-0.388-0.514-0.672-0.572 l-2.209-0.446c-0.48-0.098-0.958,0.274-1.078,0.858c-0.294,1.425-0.488,2.366,0.237,2.863 C48.047,39.172,48.208,39.218,48.368,39.218z"/><path fill="#472b29" d="M48.368,39.468c-0.218,0-0.426-0.064-0.604-0.187c-0.861-0.591-0.643-1.65-0.34-3.117 c0.146-0.72,0.75-1.175,1.373-1.055l2.209,0.446c0.363,0.074,0.673,0.333,0.849,0.711c0.169,0.363,0.193,0.792,0.066,1.178 l-0.368,1.116c-0.199,0.605-0.677,0.959-1.244,0.89c-0.595-0.073-1.213-0.109-1.463-0.089 C48.697,39.431,48.533,39.468,48.368,39.468z M48.593,35.589c-0.311,0-0.597,0.275-0.678,0.673 c-0.308,1.49-0.43,2.222,0.133,2.607c0.178,0.122,0.421,0.128,0.614,0.025l0.094-0.028c0.28-0.028,0.99,0.012,1.613,0.088 c0.308,0.044,0.585-0.173,0.71-0.55l0.368-1.116c0.086-0.262,0.069-0.565-0.045-0.811c-0.108-0.232-0.289-0.39-0.495-0.432 L48.698,35.6C48.663,35.593,48.628,35.589,48.593,35.589z"/></g><g><path fill="#00ac9c" d="M65.163,57.761c-0.085-0.168-0.233-0.27-0.395-0.275l-2.615-0.068 c-0.089-0.011-0.152,0.018-0.222,0.06l-0.363,0.221c-0.564,0.343-1.336,0.814-1.968,1.144c-0.271,0.136-0.415,0.498-0.337,0.844 l0.519,2.363c0.037,0.168,0.135,0.306,0.265,0.377l0.747,0.404c0.064,0.027,0.131,0.041,0.196,0.041 c0.158,0,0.311-0.074,0.42-0.211l0.258-0.312c0.617-0.748,1.579-0.918,2.346-0.41l0.898,0.593 c0.272,0.177,0.616,0.068,0.779-0.248l0.695-1.325c0.128-0.232,0.131-0.536,0.01-0.77L65.163,57.761z"/><path fill="#472b29" d="M60.99,63.123c-0.098,0-0.196-0.02-0.291-0.059l-0.771-0.416c-0.195-0.106-0.337-0.305-0.39-0.544 l-0.52-2.363c-0.104-0.461,0.094-0.933,0.47-1.121c0.626-0.327,1.422-0.813,1.949-1.135l0.363-0.221 c0.099-0.059,0.216-0.118,0.382-0.094l2.592,0.065c0.256,0.008,0.483,0.162,0.61,0.412l1.233,2.43 c0.159,0.306,0.154,0.7-0.014,1.004l-0.692,1.32c-0.115,0.222-0.31,0.383-0.532,0.441c-0.205,0.054-0.421,0.019-0.604-0.1 l-0.899-0.596c-0.653-0.433-1.483-0.285-2.016,0.361l-0.26,0.313C61.451,63.012,61.227,63.123,60.99,63.123z M62.126,57.668 c-0.019,0-0.031,0.005-0.067,0.025l-0.36,0.22c-0.532,0.324-1.337,0.815-1.981,1.152c-0.172,0.086-0.262,0.334-0.209,0.567 l0.52,2.364c0.021,0.097,0.074,0.176,0.14,0.212l0.746,0.404c0.011,0.003,0.045,0.01,0.077,0.01c0.083,0,0.164-0.042,0.223-0.116 l0.263-0.316c0.699-0.848,1.799-1.039,2.677-0.459l0.897,0.594c0.063,0.041,0.132,0.055,0.204,0.035 c0.088-0.023,0.164-0.091,0.216-0.189l0.695-1.326c0.09-0.163,0.093-0.377,0.01-0.538l-1.234-2.432 c-0.043-0.085-0.11-0.137-0.18-0.139l-2.614-0.067C62.139,57.668,62.132,57.668,62.126,57.668z"/><path fill="#00ac9c" d="M69.085,41.052c-0.071-0.141-0.187-0.239-0.32-0.268l-1.68-0.368h-3.138 c-0.261,0-0.516-0.088-0.739-0.253l-1.864-1.391c-0.099-0.074-0.217-0.099-0.335-0.075l-1.551,0.348 c-0.037,0.008-0.072,0.021-0.107,0.039l-1.545,0.833c-0.318,0.167-0.674,0.4-0.868,0.565c-0.079,0.068-0.138,0.163-0.172,0.272 c-0.068,0.225-0.247,0.377-0.447,0.377c-0.262,0-0.475-0.259-0.475-0.576V39.61c0-0.25-0.134-0.473-0.331-0.549 c-0.195-0.072-0.41,0.01-0.531,0.214c-0.074,0.126-0.156,0.256-0.233,0.367c-0.051,0.072-0.085,0.159-0.102,0.252 c-0.019,0.107-0.033,0.234-0.046,0.366l-0.016,0.144c-0.112,1.023-0.272,1.352-0.659,1.352h-1.541 c-0.114,0-0.228-0.017-0.341-0.052l-1.585-0.481c-0.163-0.046-0.335,0.01-0.453,0.154l-0.711,0.874 c-0.06,0.073-0.102,0.166-0.124,0.266l-0.121,0.587c-0.044,0.207-0.176,0.368-0.346,0.42l-1.475,0.447 c-0.036,0.011-0.073,0.017-0.145,0.017c-0.229,0-0.426,0.199-0.468,0.473c-0.002,0.017-0.012,0.104-0.014,0.119 c-0.013,0.171,0.037,0.341,0.137,0.463l1.081,1.311c0.118,0.143,0.166,0.355,0.123,0.551c-0.042,0.197-0.168,0.354-0.33,0.41 l-0.531,0.185c-0.229,0.08-0.374,0.352-0.34,0.638l0.059,0.476c0.049,0.516-0.097,1.022-0.401,1.392l-0.436,0.529 c-0.114,0.137-0.163,0.337-0.129,0.527l0.164,0.941c0.037,0.213,0.169,0.382,0.342,0.438l0.603,0.196 c0.041,0.012,0.082,0.019,0.124,0.019l0.969-0.001c0.151,0,0.291,0.084,0.382,0.231l0.551,0.891 c0.062,0.101,0.095,0.222,0.095,0.348v1.805c0,0.07,0.01,0.138,0.031,0.204l0.41,1.313c0.029,0.091,0.075,0.171,0.136,0.234 l0.833,0.864c0.086,0.089,0.196,0.138,0.309,0.138h0.234c0.109,0,0.215-0.045,0.299-0.128c0.214-0.211,0.426-0.422,0.577-0.576 c0.112-0.115,0.175-0.286,0.169-0.464c-0.008-0.241-0.04-0.585-0.081-0.933v-1.116c0-0.061,0.008-0.123,0.025-0.182l0.395-1.414 l0.369-0.895c0.015-0.035,0.032-0.068,0.054-0.1l0.648-0.982c0.086-0.133,0.193-0.251,0.315-0.35l0.738-0.597 c0.08-0.064,0.142-0.158,0.177-0.266l0.258-0.781c0.058-0.172,0.179-0.303,0.326-0.347l0.735-0.223 c0.134-0.038,0.273-0.01,0.383,0.08c0.112,0.091,0.188,0.236,0.206,0.396l0.156,1.326c0.009,0.08,0.032,0.157,0.068,0.225 l0.241,0.466c0.084,0.164,0.232,0.266,0.393,0.27c0.003,0,0.007,0,0.01,0c0.156,0,0.303-0.093,0.392-0.25 c1.172-2.064,1.505-1.963,1.76-1.887c0.2,0.06,0.352,0.252,0.408,0.517c0.047,0.226,0.202,0.396,0.394,0.429 c0.188,0.025,0.378-0.078,0.476-0.278c0.136-0.278,0.412-0.564,0.788-0.95c0.072-0.073,0.134-0.137,0.213-0.235 c0.066-0.098,0.279-0.483,0.54-1.002c0.033-0.065,0.056-0.138,0.065-0.214l0.021-0.163c0.046-0.356,0.111-0.88,0.123-1.105 c0-0.188-0.001-0.629,0.903-0.743c0.146-0.018,0.277-0.117,0.354-0.268l0.577-1.119c0.027-0.051,0.046-0.107,0.058-0.166 l0.133-0.646c0.171-0.826,0.82-1.374,1.521-1.284l0.293,0.039c0.274,0.036,0.529,0.167,0.739,0.377 c0.193,0.194,0.478,0.171,0.649-0.05c0.176-0.229,0.44-0.413,0.782-0.552c0.146-0.06,0.259-0.199,0.304-0.377l0.163-0.643 C69.172,41.363,69.156,41.193,69.085,41.052z"/><path fill="#472b29" d="M51.017,58.932h-0.233c-0.18,0-0.354-0.076-0.488-0.214l-0.834-0.865 c-0.087-0.09-0.152-0.201-0.194-0.33l-0.409-1.316c-0.028-0.088-0.042-0.182-0.042-0.277v-1.806c0-0.079-0.021-0.155-0.059-0.218 l-0.55-0.889c-0.025-0.042-0.082-0.112-0.169-0.112l-0.97,0.001c-0.064,0-0.131-0.011-0.197-0.03l-0.605-0.196 c-0.263-0.087-0.458-0.329-0.511-0.634l-0.164-0.941c-0.047-0.263,0.021-0.536,0.184-0.729l0.435-0.528 c0.263-0.318,0.389-0.759,0.345-1.208l-0.057-0.471c-0.05-0.404,0.163-0.785,0.506-0.905l0.53-0.185 c0.079-0.026,0.145-0.115,0.168-0.226c0.026-0.121-0.002-0.254-0.072-0.339l-1.08-1.311c-0.142-0.171-0.212-0.404-0.194-0.641 l0.01-0.087c0.066-0.449,0.368-0.737,0.722-0.737c0.036,0,0.059-0.002,0.067-0.005l1.479-0.448 c0.081-0.024,0.149-0.115,0.173-0.231l0.121-0.586c0.031-0.143,0.092-0.271,0.177-0.374l0.709-0.873 c0.18-0.221,0.452-0.313,0.716-0.236l1.589,0.481c0.088,0.027,0.178,0.041,0.269,0.041h1.541c0.121,0,0.287,0,0.412-1.129 l0.015-0.145c0.014-0.135,0.028-0.269,0.048-0.382c0.023-0.13,0.073-0.251,0.145-0.353c0.073-0.105,0.15-0.23,0.223-0.352 c0.179-0.304,0.521-0.437,0.832-0.32c0.297,0.116,0.494,0.431,0.494,0.784v0.945c0,0.174,0.105,0.327,0.226,0.327 c0.087,0,0.172-0.082,0.207-0.199c0.048-0.158,0.134-0.293,0.249-0.392c0.212-0.18,0.588-0.425,0.914-0.596l1.542-0.832 c0.061-0.031,0.118-0.052,0.175-0.064l1.548-0.347c0.193-0.041,0.385,0.003,0.539,0.119l1.863,1.391 c0.18,0.133,0.384,0.203,0.59,0.203h3.138l1.733,0.374c0.207,0.045,0.386,0.191,0.49,0.401c0.097,0.193,0.121,0.427,0.066,0.641 l-0.164,0.644c-0.063,0.252-0.231,0.457-0.452,0.547c-0.303,0.123-0.53,0.282-0.677,0.473c-0.129,0.167-0.309,0.266-0.504,0.277 c-0.207,0.015-0.377-0.061-0.521-0.203c-0.171-0.172-0.377-0.278-0.595-0.307l-0.294-0.039c-0.557-0.069-1.101,0.395-1.243,1.086 l-0.133,0.646c-0.017,0.083-0.045,0.162-0.084,0.233l-0.573,1.115c-0.115,0.224-0.319,0.374-0.546,0.401 c-0.684,0.087-0.684,0.342-0.684,0.494c-0.012,0.246-0.076,0.761-0.124,1.136l-0.021,0.165c-0.012,0.103-0.043,0.204-0.092,0.298 c-0.236,0.47-0.471,0.902-0.555,1.026c-0.098,0.123-0.165,0.193-0.243,0.271c-0.346,0.355-0.62,0.638-0.74,0.884 c-0.145,0.293-0.435,0.457-0.734,0.416c-0.301-0.051-0.535-0.296-0.604-0.625c-0.036-0.171-0.126-0.296-0.234-0.329 c-0.123-0.03-0.397-0.118-1.471,1.771c-0.135,0.236-0.362,0.377-0.609,0.377c-0.268-0.006-0.502-0.162-0.626-0.407l-0.24-0.465 c-0.048-0.091-0.08-0.195-0.094-0.309l-0.156-1.328c-0.012-0.096-0.055-0.182-0.116-0.232c-0.046-0.037-0.101-0.047-0.153-0.032 l-0.733,0.222c-0.068,0.021-0.13,0.092-0.161,0.187l-0.259,0.781c-0.051,0.155-0.141,0.288-0.259,0.383l-0.736,0.595 c-0.103,0.083-0.19,0.182-0.262,0.292l-0.649,0.983c-0.015,0.021-0.023,0.039-0.032,0.059l-0.368,0.896l-0.385,1.386 c-0.011,0.038-0.017,0.077-0.017,0.114v1.116c0.04,0.326,0.073,0.679,0.081,0.926c0.008,0.246-0.079,0.481-0.24,0.646 c-0.151,0.155-0.365,0.368-0.579,0.579C51.359,58.86,51.19,58.932,51.017,58.932z M50.348,41.457 c-0.053,0-0.105,0.027-0.147,0.079l-0.71,0.874c-0.035,0.042-0.061,0.097-0.074,0.159l-0.12,0.585 c-0.062,0.297-0.26,0.529-0.518,0.608l-1.476,0.447c-0.068,0.022-0.137,0.027-0.217,0.027c-0.104,0-0.199,0.112-0.222,0.262 l-0.013,0.112c-0.007,0.095,0.023,0.201,0.083,0.272l1.08,1.311c0.167,0.202,0.233,0.495,0.175,0.764 c-0.06,0.281-0.249,0.508-0.493,0.592l-0.529,0.185c-0.118,0.041-0.194,0.204-0.174,0.372l0.058,0.477 c0.057,0.586-0.109,1.16-0.455,1.581l-0.438,0.529c-0.067,0.082-0.097,0.205-0.075,0.323l0.164,0.942 c0.021,0.12,0.089,0.216,0.174,0.244l0.602,0.194l1.016,0.007c0.236,0,0.459,0.13,0.595,0.349l0.551,0.891 c0.087,0.144,0.132,0.309,0.132,0.479v1.806c0,0.045,0.006,0.089,0.019,0.128l0.409,1.314c0.018,0.053,0.044,0.1,0.077,0.134 l0.833,0.864c0.039,0.04,0.086,0.063,0.13,0.063h0.233c0.055,0,0.098-0.031,0.125-0.058c0.211-0.208,0.423-0.419,0.572-0.572 c0.064-0.066,0.102-0.172,0.098-0.281c-0.008-0.235-0.039-0.572-0.079-0.912l-0.002-1.146c0-0.083,0.012-0.166,0.034-0.249 l0.395-1.414l0.379-0.924c0.021-0.051,0.046-0.098,0.078-0.145l0.646-0.979c0.099-0.152,0.222-0.29,0.365-0.406l0.739-0.598 c0.042-0.033,0.076-0.086,0.096-0.148l0.26-0.783c0.084-0.251,0.269-0.44,0.492-0.507l0.734-0.223 c0.215-0.064,0.439-0.019,0.612,0.125c0.162,0.132,0.271,0.337,0.296,0.561l0.156,1.327c0.007,0.05,0.021,0.098,0.041,0.137 l0.242,0.469c0.041,0.082,0.108,0.133,0.176,0.135c0.069,0,0.136-0.047,0.179-0.124c1.176-2.069,1.607-2.132,2.047-2.003 c0.291,0.087,0.508,0.351,0.583,0.705c0.026,0.125,0.103,0.219,0.189,0.234c0.081,0.004,0.163-0.043,0.211-0.142 c0.155-0.317,0.454-0.625,0.833-1.015c0.069-0.069,0.125-0.128,0.197-0.218c0.041-0.062,0.238-0.415,0.512-0.958 c0.022-0.043,0.035-0.085,0.041-0.13l0.021-0.167c0.044-0.347,0.11-0.87,0.12-1.084c0-0.199,0-0.838,1.122-0.979 c0.063-0.008,0.123-0.058,0.162-0.134l0.576-1.119c0.018-0.032,0.029-0.065,0.036-0.101l0.133-0.648 c0.197-0.95,0.964-1.588,1.799-1.48l0.294,0.039c0.328,0.043,0.634,0.199,0.883,0.449c0.04,0.04,0.089,0.081,0.135,0.058 c0.051-0.003,0.101-0.032,0.141-0.084c0.201-0.262,0.499-0.474,0.885-0.63c0.072-0.029,0.13-0.106,0.154-0.205l0.165-0.646 c0.025-0.1,0.015-0.207-0.029-0.295c-0.036-0.072-0.093-0.123-0.15-0.136l-1.68-0.368l-3.084,0.006 c-0.314,0-0.621-0.104-0.888-0.302l-1.864-1.392c-0.04-0.029-0.085-0.041-0.137-0.03l-1.545,0.347l-1.588,0.849 c-0.296,0.155-0.642,0.379-0.825,0.535c-0.042,0.035-0.075,0.09-0.095,0.154c-0.099,0.332-0.375,0.556-0.686,0.556 c-0.4,0-0.726-0.371-0.726-0.827V39.61c0-0.145-0.072-0.278-0.172-0.317c-0.079-0.031-0.167,0.012-0.225,0.108 c-0.078,0.132-0.163,0.267-0.243,0.383c-0.03,0.043-0.051,0.096-0.062,0.153c-0.018,0.101-0.03,0.221-0.042,0.347l-0.016,0.147 c-0.096,0.861-0.23,1.574-0.909,1.574h-1.541c-0.142,0-0.281-0.021-0.415-0.063l-1.583-0.479 C50.374,41.459,50.36,41.457,50.348,41.457z"/><g><path fill="#00ac9c" d="M41.657,52.607l-0.192-0.231c-0.089-0.107-0.209-0.167-0.334-0.167h-0.794 c-0.304,0-0.593-0.114-0.836-0.329c-0.001,0-0.001,0-0.001,0l-1.353-1.192c-0.21-0.186-0.504-0.132-0.659,0.119l-0.444,0.722 l-0.894,1.809c-0.065,0.131-0.084,0.288-0.054,0.437l0.204,0.985c0.025,0.118,0.08,0.224,0.157,0.303l0.687,0.692 c0.193,0.196,0.341,0.449,0.426,0.734l0.586,1.958c0.073,0.242,0.1,0.509,0.079,0.767l-0.178,2.044 c-0.019,0.211,0.059,0.415,0.203,0.536c0.081,0.068,0.175,0.101,0.269,0.101c0.073,0,0.148-0.02,0.215-0.063l0.149-0.088 c0.118-0.068,0.208-0.19,0.249-0.341c0.222-0.816,0.375-1.423,0.414-1.664c0.062-0.581,0.719-1.72,0.885-1.937l0.838-1.017 c0.048-0.059,0.085-0.128,0.109-0.205c0.097-0.312,0.254-1.01,0.398-1.78c0.008-0.042,0.012-0.086,0.012-0.128l-0.001-1.656 C41.798,52.862,41.747,52.715,41.657,52.607z"/><path fill="#472b29" d="M38.529,62.146c-0.158,0-0.308-0.056-0.431-0.161c-0.204-0.17-0.316-0.457-0.291-0.748 l0.179-2.043c0.019-0.228-0.005-0.46-0.069-0.673l-0.586-1.959c-0.073-0.243-0.199-0.461-0.365-0.631l-0.687-0.691 c-0.111-0.114-0.188-0.261-0.224-0.426l-0.205-0.987c-0.041-0.204-0.015-0.416,0.074-0.598l0.896-1.81l0.454-0.742 c0.116-0.188,0.299-0.313,0.5-0.343c0.197-0.021,0.386,0.031,0.539,0.168l1.352,1.191c0.197,0.174,0.43,0.266,0.672,0.266h0.794 c0.199,0,0.392,0.094,0.526,0.258l0.192,0.23c0.128,0.154,0.198,0.356,0.198,0.569l0.001,1.656c0,0.059-0.006,0.119-0.017,0.175 c-0.144,0.771-0.303,1.479-0.405,1.808c-0.032,0.106-0.084,0.204-0.153,0.289l-0.84,1.018c-0.143,0.188-0.773,1.29-0.828,1.804 c-0.041,0.254-0.183,0.822-0.422,1.703c-0.059,0.217-0.188,0.393-0.366,0.493l-0.146,0.086 C38.771,62.111,38.65,62.146,38.529,62.146z M37.867,50.827c-0.007,0-0.014,0.001-0.021,0.002 c-0.056,0.008-0.108,0.047-0.146,0.11l-0.443,0.721l-0.884,1.789c-0.039,0.082-0.052,0.183-0.032,0.276l0.204,0.984 c0.015,0.07,0.047,0.134,0.091,0.179l0.687,0.691c0.224,0.229,0.392,0.518,0.487,0.839l0.586,1.958 c0.082,0.271,0.113,0.568,0.089,0.858l-0.179,2.045c-0.012,0.128,0.034,0.254,0.115,0.321c0.062,0.054,0.131,0.059,0.193,0.019 l0.152-0.09c0.063-0.037,0.111-0.105,0.135-0.192c0.293-1.077,0.384-1.485,0.408-1.639c0.07-0.65,0.77-1.834,0.934-2.049 l0.845-1.023c0.026-0.033,0.048-0.073,0.062-0.118c0.096-0.308,0.253-1.012,0.392-1.754c0.006-0.027,0.008-0.055,0.008-0.082 l-0.001-1.656c0-0.096-0.03-0.187-0.083-0.251l-0.192-0.229c-0.041-0.05-0.091-0.077-0.142-0.077h-0.794 c-0.367,0-0.714-0.135-1.002-0.391l-1.353-1.192C37.946,50.844,37.907,50.827,37.867,50.827z"/></g><g><path fill="#00ac9c" d="M42.81,35.181c-0.042-0.05-0.089-0.09-0.142-0.118l-1.11-0.597 c-0.133-0.07-0.284-0.065-0.411,0.015c-1.062,0.665-1.452,0.966-1.571,1.064c-0.042,0.035-0.13,0.146-0.161,0.195 c-0.156,0.179-0.305,0.346-3.421,0.18c-0.204-0.039-0.405,0.146-0.472,0.391c-0.038,0.135-0.059,0.24-0.069,0.388 c0.001,0.157-0.062,0.325-0.169,0.453c-0.123,0.147-0.285,0.227-0.54,0.267c-0.13,0.02-0.247,0.105-0.324,0.234 c-0.076,0.128-0.106,0.289-0.082,0.446c0.032,0.203-0.019,0.441-0.125,0.591c-0.527,0.739-1.244,1.367-1.633,1.134l-1.167-0.707 c-0.066-0.041-0.139-0.061-0.213-0.061h-2.217c-0.118,0-0.231,0.053-0.319,0.149l-1.007,1.101 c-0.179,0.196-0.209,0.522-0.07,0.761c0.139,0.239,0.407,0.312,0.616,0.172l0.245-0.162c0.435-0.332,1.01-0.346,1.46-0.035 l0.705,0.49c0.116,0.081,0.217,0.176,0.303,0.278l0.381,0.464c0.268,0.323,0.416,0.757,0.416,1.218v2.13 c0,0.241,0.124,0.457,0.31,0.54l0.652,0.293c0.221,0.1,0.422,0.27,0.578,0.492l0.405,0.571c0.082,0.116,0.2,0.188,0.325,0.199 c0.012,0.001,0.023,0.001,0.035,0.001c0.113,0,0.224-0.05,0.311-0.141c0.057-0.06,0.127-0.101,0.204-0.12l1.842-0.47 c0.085-0.02,0.17-0.015,0.247,0.016l0.292,0.119c0.232,0.097,0.487-0.041,0.587-0.312l0.045-0.122 c0.058-0.158,0.054-0.339-0.01-0.493l-0.177-0.428c-0.058-0.138-0.066-0.303-0.022-0.451c0.043-0.145,0.134-0.267,0.251-0.331 l1.901-1.048c0.052-0.028,0.098-0.068,0.138-0.116l0.472-0.57c0.162-0.195,0.187-0.502,0.059-0.731 c-0.128-0.231-0.229-0.393-0.303-0.507c-0.13-0.197-0.351-0.27-0.544-0.178c-0.104,0.048-0.241,0.122-0.397,0.223 c-0.178,0.109-0.405,0.082-0.552-0.074c-0.264-0.279-0.216-0.605,0.098-1.659c0.011-0.038,0.026-0.073,0.04-0.101l0.565-1.138 c0.02-0.042,0.045-0.079,0.072-0.113l0.539-0.636c0.163-0.195,0.418-0.222,0.608-0.055c0.206,0.18,0.37,0.423,0.474,0.703 l0.319,0.873c0.091,0.249,0.317,0.384,0.533,0.33c0.22-0.056,0.377-0.292,0.377-0.564v-0.238c0-0.162,0-0.364,0.708-1.688 c0.113-0.212,0.26-0.386,0.435-0.521l0.313-0.233c0.123-0.093,0.206-0.25,0.223-0.424c0.017-0.176-0.034-0.351-0.137-0.475 L42.81,35.181z"/><path fill="#472b29" d="M34.019,47.968c-0.255-0.019-0.44-0.13-0.564-0.306l-0.404-0.571 c-0.131-0.185-0.296-0.326-0.478-0.408l-0.651-0.293c-0.278-0.123-0.458-0.425-0.458-0.769v-2.13c0-0.405-0.127-0.78-0.358-1.058 l-0.382-0.467c-0.072-0.086-0.158-0.165-0.252-0.23l-0.704-0.49c-0.359-0.248-0.816-0.238-1.166,0.029l-0.259,0.172 c-0.152,0.102-0.338,0.136-0.51,0.095c-0.19-0.043-0.354-0.168-0.46-0.35c-0.194-0.336-0.151-0.779,0.102-1.057l1.006-1.101 c0.137-0.148,0.315-0.23,0.504-0.23H31.2c0.12,0,0.239,0.034,0.345,0.099l1.165,0.706c0.151,0.092,0.729-0.268,1.301-1.065 c0.068-0.097,0.103-0.269,0.081-0.408c-0.033-0.214,0.007-0.432,0.114-0.611c0.114-0.192,0.297-0.321,0.5-0.354 c0.239-0.036,0.327-0.108,0.387-0.18c0.069-0.083,0.112-0.194,0.111-0.291c0.012-0.179,0.034-0.302,0.078-0.458 c0.105-0.386,0.425-0.643,0.759-0.568c2.732,0.142,3.078,0.024,3.186-0.099c0.015-0.027,0.119-0.164,0.189-0.223 c0.16-0.132,0.579-0.445,1.599-1.084c0.202-0.125,0.45-0.136,0.661-0.023l1.11,0.598c0.08,0.042,0.152,0.103,0.216,0.177 l0.001,0.001l0.718,0.863c0.147,0.179,0.217,0.419,0.193,0.66c-0.023,0.244-0.141,0.463-0.321,0.6l-0.313,0.233 c-0.146,0.112-0.27,0.262-0.364,0.439c-0.68,1.269-0.68,1.457-0.68,1.569v0.238c0,0.391-0.232,0.722-0.565,0.806 c-0.346,0.091-0.693-0.116-0.829-0.486l-0.319-0.872c-0.088-0.239-0.228-0.447-0.403-0.602c-0.038-0.032-0.062-0.041-0.124-0.047 c-0.045,0.004-0.09,0.03-0.127,0.075l-0.541,0.638c-0.015,0.018-0.027,0.038-0.036,0.057l-0.567,1.144 c-0.007,0.015-0.017,0.035-0.023,0.058c-0.313,1.048-0.313,1.253-0.157,1.419c0.064,0.07,0.162,0.083,0.24,0.033 c0.165-0.105,0.311-0.184,0.423-0.236c0.304-0.146,0.658-0.035,0.857,0.267c0.078,0.12,0.182,0.286,0.313,0.523 c0.178,0.321,0.143,0.737-0.086,1.012l-0.472,0.569c-0.063,0.075-0.133,0.134-0.21,0.177l-1.9,1.047 c-0.059,0.032-0.108,0.101-0.132,0.184c-0.027,0.092-0.022,0.199,0.013,0.284l0.178,0.428c0.089,0.211,0.094,0.457,0.014,0.675 l-0.043,0.121c-0.076,0.208-0.226,0.372-0.409,0.452c-0.164,0.072-0.344,0.075-0.51,0.005l-0.29-0.118 c-0.027-0.011-0.059-0.014-0.095-0.004l-1.838,0.469c-0.032,0.008-0.061,0.025-0.084,0.05 C34.374,47.891,34.2,47.968,34.019,47.968z M29.198,40.565c0.294,0,0.591,0.089,0.853,0.27l0.705,0.491 c0.131,0.091,0.249,0.199,0.352,0.322l0.383,0.467c0.305,0.365,0.473,0.854,0.473,1.376v2.13c0,0.142,0.066,0.271,0.162,0.313 l0.652,0.294c0.263,0.118,0.498,0.316,0.681,0.574l0.404,0.571c0.039,0.056,0.091,0.09,0.143,0.095l0,0 c0.059,0,0.105-0.023,0.146-0.064c0.089-0.094,0.202-0.16,0.325-0.189l1.839-0.469c0.139-0.032,0.274-0.023,0.4,0.025l0.295,0.12 c0.039,0.016,0.077,0.017,0.118-0.001c0.06-0.025,0.11-0.086,0.14-0.165l0.043-0.121c0.037-0.101,0.035-0.217-0.005-0.312 l-0.178-0.429c-0.079-0.189-0.091-0.414-0.032-0.616c0.063-0.211,0.197-0.386,0.371-0.48l1.9-1.048 c0.023-0.013,0.045-0.032,0.067-0.058l0.471-0.569c0.096-0.115,0.11-0.313,0.033-0.45c-0.124-0.224-0.224-0.382-0.295-0.493 c-0.046-0.069-0.128-0.133-0.226-0.087c-0.099,0.046-0.225,0.114-0.37,0.208c-0.289,0.174-0.644,0.127-0.87-0.114 c-0.382-0.405-0.256-0.902,0.042-1.9c0.014-0.05,0.035-0.1,0.054-0.139l0.566-1.141c0.022-0.05,0.057-0.103,0.101-0.158 l0.544-0.642c0.123-0.146,0.29-0.236,0.471-0.251c0.164-0.017,0.351,0.045,0.492,0.169c0.239,0.209,0.427,0.487,0.543,0.806 l0.32,0.872c0.046,0.124,0.143,0.19,0.236,0.174c0.107-0.027,0.188-0.165,0.188-0.321v-0.238c0-0.209,0-0.426,0.738-1.806 c0.129-0.24,0.298-0.442,0.504-0.602l0.315-0.234c0.066-0.051,0.113-0.144,0.123-0.248c0.011-0.109-0.02-0.219-0.08-0.293 l-0.717-0.862c-0.022-0.025-0.046-0.045-0.069-0.058l-1.109-0.598c-0.057-0.028-0.111-0.027-0.159,0.007 c-1.034,0.646-1.426,0.946-1.547,1.045c-0.019,0.018-0.086,0.102-0.108,0.137c-0.251,0.293-0.405,0.468-3.646,0.295 c-0.084-0.013-0.178,0.066-0.217,0.207c-0.034,0.119-0.051,0.211-0.061,0.34c0.002,0.196-0.08,0.421-0.226,0.596 c-0.164,0.196-0.378,0.305-0.694,0.354c-0.056,0.009-0.108,0.05-0.147,0.115c-0.047,0.079-0.065,0.181-0.05,0.278 c0.041,0.269-0.024,0.573-0.168,0.775c-0.575,0.807-1.396,1.549-1.966,1.204l-1.169-0.708c-0.027-0.018-0.055-0.025-0.083-0.025 h-2.217c-0.047,0-0.095,0.024-0.135,0.068l-1.006,1.101c-0.106,0.116-0.123,0.321-0.039,0.468 c0.036,0.061,0.086,0.101,0.14,0.113c0.042,0.009,0.083,0.001,0.122-0.024l0.246-0.163 C28.574,40.667,28.885,40.565,29.198,40.565z"/></g></g><g><path fill="#472b29" d="M41.5,46.75c-0.138,0-0.25-0.112-0.25-0.25v-18c0-0.138,0.112-0.25,0.25-0.25s0.25,0.112,0.25,0.25 v18C41.75,46.638,41.638,46.75,41.5,46.75z"/></g><g><path fill="#472b29" d="M41.5,59.75c-0.138,0-0.25-0.112-0.25-0.25v-11c0-0.138,0.112-0.25,0.25-0.25s0.25,0.112,0.25,0.25 v11C41.75,59.638,41.638,59.75,41.5,59.75z"/></g><g><path fill="#472b29" d="M41.5,68.75c-0.138,0-0.25-0.112-0.25-0.25v-7c0-0.138,0.112-0.25,0.25-0.25s0.25,0.112,0.25,0.25v7 C41.75,68.638,41.638,68.75,41.5,68.75z"/></g><g><path fill="#472b29" d="M58.5,41.75c-0.138,0-0.25-0.112-0.25-0.25v-8c0-0.138,0.112-0.25,0.25-0.25s0.25,0.112,0.25,0.25v8 C58.75,41.638,58.638,41.75,58.5,41.75z"/></g><g><path fill="#472b29" d="M58.5,53.75c-0.138,0-0.25-0.112-0.25-0.25v-10c0-0.138,0.112-0.25,0.25-0.25s0.25,0.112,0.25,0.25 v10C58.75,53.638,58.638,53.75,58.5,53.75z"/></g><g><path fill="#472b29" d="M58.5,72.75c-0.138,0-0.25-0.112-0.25-0.25v-17c0-0.138,0.112-0.25,0.25-0.25s0.25,0.112,0.25,0.25 v17C58.75,72.638,58.638,72.75,58.5,72.75z"/></g><g><path fill="#472b29" d="M58.5,36.417c-0.026,0-0.054-0.004-0.079-0.013L41.5,30.764l-12.65,4.203 c-0.13,0.044-0.272-0.026-0.316-0.158c-0.044-0.131,0.027-0.272,0.158-0.316l12.729-4.229c0.051-0.018,0.107-0.018,0.158,0 L58.5,35.903l8.333-2.778c0.132-0.043,0.272,0.027,0.316,0.158s-0.027,0.272-0.158,0.316l-8.412,2.805 C58.554,36.413,58.526,36.417,58.5,36.417z"/></g><g><path fill="#472b29" d="M58.5,70.75c-0.025,0-0.05-0.004-0.074-0.011l-3.533-1.096c-0.132-0.041-0.205-0.182-0.165-0.313 c0.042-0.132,0.182-0.204,0.313-0.165l3.459,1.073l13.75-4.256V31.847l-2.314,0.771c-0.131,0.047-0.272-0.027-0.316-0.158 s0.027-0.272,0.158-0.316l2.644-0.881c0.074-0.027,0.161-0.014,0.226,0.034c0.064,0.047,0.104,0.123,0.104,0.203v34.667 c0,0.109-0.071,0.206-0.176,0.239l-14,4.333C58.55,70.746,58.525,70.75,58.5,70.75z"/></g><g><path fill="#472b29" d="M28.5,69.75c-0.053,0-0.104-0.017-0.147-0.048c-0.064-0.048-0.103-0.122-0.103-0.202V49.813 c0-0.138,0.112-0.25,0.25-0.25s0.25,0.112,0.25,0.25v19.346l12.882-4.104c0.051-0.016,0.102-0.015,0.15-0.001l10.446,3.239 c0.132,0.041,0.205,0.182,0.165,0.313c-0.042,0.132-0.183,0.201-0.313,0.165l-10.371-3.217l-13.133,4.185 C28.551,69.746,28.525,69.75,28.5,69.75z"/></g><g><path fill="#472b29" d="M28.5,47.875c-0.138,0-0.25-0.112-0.25-0.25V43.25c0-0.138,0.112-0.25,0.25-0.25 s0.25,0.112,0.25,0.25v4.375C28.75,47.763,28.638,47.875,28.5,47.875z"/></g><g><path fill="#fdfcef" d="M85.178,61.287c1.883,0,3.517,0,3.54,0c2.11,0,3.821-1.674,3.821-3.739 c0-1.802-1.302-3.305-3.035-3.66c0.02-0.158,0.034-0.317,0.034-0.48c0-2.139-1.772-3.873-3.957-3.873 c-1.29,0-2.433,0.607-3.155,1.543c-0.185-2.381-2.358-4.218-4.9-3.913c-1.859,0.223-3.397,1.629-3.739,3.431 c-0.11,0.578-0.098,1.139,0.011,1.665c-0.498-0.525-1.208-0.856-1.998-0.856c-1.446,0-2.627,1.102-2.72,2.494 c-0.657-0.142-1.371-0.133-2.123,0.143c-1.438,0.528-2.462,1.853-2.522,3.356c-0.085,2.133,1.657,3.889,3.818,3.889 c0.164,0,0.741,0,0.874,0h7.934 M78.701,61.287h0.36"/><path fill="#472b29" d="M88.718,61.788h-3.54c-0.276,0-0.5-0.224-0.5-0.5s0.224-0.5,0.5-0.5h3.54 c1.831,0,3.321-1.453,3.321-3.239c0-1.524-1.108-2.858-2.636-3.17c-0.256-0.053-0.429-0.294-0.396-0.554 c0.018-0.137,0.03-0.275,0.03-0.417c0-1.86-1.551-3.373-3.457-3.373c-1.092,0-2.098,0.491-2.76,1.349 c-0.126,0.164-0.341,0.231-0.539,0.174c-0.198-0.06-0.339-0.234-0.355-0.44c-0.079-1.02-0.565-1.944-1.369-2.604 c-0.829-0.68-1.885-0.979-2.973-0.853c-1.646,0.197-3.006,1.442-3.307,3.027c-0.094,0.495-0.091,0.99,0.009,1.472 c0.045,0.219-0.06,0.441-0.258,0.545c-0.197,0.102-0.44,0.063-0.594-0.1c-0.428-0.451-1.009-0.7-1.635-0.7 c-1.169,0-2.145,0.891-2.221,2.027c-0.01,0.146-0.082,0.278-0.198,0.366c-0.116,0.087-0.264,0.12-0.406,0.089 c-0.639-0.138-1.243-0.098-1.846,0.125c-1.262,0.463-2.144,1.631-2.195,2.905c-0.035,0.876,0.283,1.709,0.895,2.346 c0.635,0.66,1.496,1.024,2.423,1.024h8.807c0.276,0,0.5,0.224,0.5,0.5s-0.224,0.5-0.5,0.5h-8.807 c-1.185,0-2.331-0.485-3.144-1.331c-0.803-0.836-1.219-1.929-1.173-3.078c0.067-1.675,1.212-3.204,2.849-3.806 c0.61-0.225,1.24-0.304,1.88-0.244c0.344-1.396,1.629-2.424,3.135-2.424c0.493,0,0.977,0.113,1.414,0.323 c0.009-0.242,0.037-0.484,0.083-0.727c0.381-2.009,2.096-3.585,4.17-3.833c1.365-0.167,2.685,0.218,3.726,1.071 c0.748,0.613,1.278,1.409,1.546,2.302c0.791-0.648,1.786-1.007,2.842-1.007c2.458,0,4.457,1.962,4.457,4.373 c0,0.034,0,0.068-0.001,0.103c1.764,0.555,3.003,2.188,3.003,4.038C93.039,59.886,91.101,61.788,88.718,61.788z M79.061,61.788 h-0.36c-0.276,0-0.5-0.224-0.5-0.5s0.224-0.5,0.5-0.5h0.36c0.276,0,0.5,0.224,0.5,0.5S79.337,61.788,79.061,61.788z"/><g><path fill="#472b29" d="M87.011,55.984c-0.018,0-0.036-0.002-0.055-0.006c-0.135-0.03-0.22-0.164-0.189-0.299 c0.037-0.164,0.094-0.325,0.17-0.479c0.604-1.224,2.272-1.677,3.722-1.007c0.125,0.058,0.18,0.206,0.122,0.331 c-0.058,0.126-0.207,0.179-0.332,0.122c-1.201-0.556-2.577-0.208-3.063,0.774c-0.058,0.118-0.102,0.242-0.13,0.367 C87.229,55.905,87.126,55.984,87.011,55.984z"/></g><g><path fill="#472b29" d="M81.852,61.788h-1.107c-0.276,0-0.5-0.224-0.5-0.5s0.224-0.5,0.5-0.5h1.107 c0.276,0,0.5,0.224,0.5,0.5S82.129,61.788,81.852,61.788z"/></g></g></svg>