<?xml version="1.0" standalone="no"?><!DOCTYPE svg PUBLIC "-//W3C//DTD SVG 1.1//EN" "http://www.w3.org/Graphics/SVG/1.1/DTD/svg11.dtd"><svg class="icon" width="200px" height="200.00px" viewBox="0 0 1024 1024" version="1.1" xmlns="http://www.w3.org/2000/svg"><path d="M185.931697 58.401129h217.382536v360.12396H185.931697V58.401129z" fill="#E65352" /><path d="M403.314233 58.401129H620.685767v360.12396H403.314233V58.401129z" fill="#FAFAFA" /><path d="M620.685767 58.401129h217.381536v360.12396H620.685767V58.401129z" fill="#538DE7" /><path d="M512.0005 965.597871c-210.099647 0-380.411437-170.316791-380.411437-380.410437 0-210.100647 170.31179-380.416438 380.411437-380.416438 210.098647 0 380.410437 170.315791 380.410437 380.416438 0 210.093646-170.31179 380.410437-380.410437 380.410437z m0-615.910185c-130.058876 0-235.495747 105.43487-235.495747 235.499748 0 130.053876 105.435871 235.489746 235.495747 235.489746s235.494747-105.435871 235.494747-235.489746c-0.001-130.064877-105.435871-235.499748-235.494747-235.499748z" fill="#DBE2E4" /><path d="M263.282139 585.187434c0 137.363768 111.352593 248.717361 248.717361 248.717361s248.717361-111.353593 248.717361-248.717361c0-137.364768-111.352593-248.722362-248.717361-248.722362S263.282139 447.822666 263.282139 585.187434z" fill="#B7C1C4" /><path d="M516.349031 440.083721a93.113366 93.113366 0 0 0-72.460845 30.612737 108.677266 108.677266 0 0 0-28.26045 76.811376h43.477307a86.556566 86.556566 0 0 1 15.215858-52.173368 47.26977 47.26977 0 0 1 40.575953-18.117212 56.148854 56.148854 0 0 1 38.58671 11.95946 45.990614 45.990614 0 0 1 13.223614 36.225422 69.381469 69.381469 0 0 1-19.562388 46.555683 298.624453 298.624453 0 0 1-40.579953 32.607981 361.016069 361.016069 0 0 0-64.30485 51.628302 108.70827 108.70827 0 0 0-28.26245 74.453088h196.003926v-38.223666H467.800105a140.939204 140.939204 0 0 1 54.343633-54.347634 397.286497 397.286497 0 0 0 59.056209-45.829594 98.534028 98.534028 0 0 0 27.898406-67.384226 80.083776 80.083776 0 0 0-24.637008-61.231474 96.528783 96.528783 0 0 0-67.389226-23.548875h-0.723088z" fill="#FFFFFF" /></svg>