<?xml version="1.0" standalone="no"?><!DOCTYPE svg PUBLIC "-//W3C//DTD SVG 1.1//EN" "http://www.w3.org/Graphics/SVG/1.1/DTD/svg11.dtd"><svg class="icon" width="200px" height="200.00px" viewBox="0 0 1024 1024" version="1.1" xmlns="http://www.w3.org/2000/svg"><path d="M185.931697 58.401129h217.381536v360.12296H185.931697V58.401129z" fill="#E65352" /><path d="M403.313233 58.401129h217.373534v360.12296H403.313233V58.401129z" fill="#FAFAFA" /><path d="M620.686767 58.401129h217.381536v360.12296H620.686767V58.401129z" fill="#538DE7" /><path d="M204.044908 585.186434c0 170.073761 137.87383 307.951592 307.955592 307.951592 170.080762 0 307.954592-137.877831 307.954592-307.951592 0-170.081762-137.87383-307.959593-307.954592-307.959593-170.081762 0-307.955592 137.877831-307.955592 307.959593z" fill="#F9DA46" /><path d="M512.0005 965.597871c-210.099647 0-380.411437-170.315791-380.411437-380.411437 0-210.099647 170.31179-380.416438 380.411437-380.416438s380.411437 170.316791 380.411437 380.416438c0 210.095646-170.31179 380.411437-380.411437 380.411437z m0-615.910185c-130.059876 0-235.494747 105.43487-235.494747 235.498748 0 130.054876 105.43487 235.489746 235.494747 235.489746s235.494747-105.43487 235.494747-235.489746c0-130.063877-105.43487-235.498747-235.494747-235.498748z" fill="#F9DA46" /><path d="M263.283139 585.186434c0 137.364768 111.352593 248.718361 248.717361 248.718361 137.363768 0 248.717361-111.353593 248.717361-248.718361 0-137.363768-111.353593-248.722362-248.717361-248.722362-137.364768 0-248.717361 111.358594-248.717361 248.722362z" fill="#F4AE30" /><path d="M512.0005 446.059451a163.082908 163.082908 0 0 1-76.084288 45.107506v43.113263a155.187944 155.187944 0 0 0 65.395983-36.229423v232.597393h43.477308V446.059451h-32.789003z" fill="#FFFFFF" /></svg>