<svg xmlns="http://www.w3.org/2000/svg" viewBox="0 0 64 64"><radialGradient id="rBVypQe~0poxNcMPXVFJoa" cx="32.5" cy="31.5" r="30.516" gradientUnits="userSpaceOnUse" spreadMethod="reflect"><stop offset="0" stop-color="#afeeff"/><stop offset=".193" stop-color="#bbf1ff"/><stop offset=".703" stop-color="#d7f8ff"/><stop offset="1" stop-color="#e1faff"/></radialGradient><path fill="url(#rBVypQe~0poxNcMPXVFJoa)" d="M59,20h1.5c2.168,0,3.892-1.998,3.422-4.243C63.58,14.122,62.056,13,60.385,13L53,13 c-1.105,0-2-0.895-2-2c0-1.105,0.895-2,2-2h3.385c1.67,0,3.195-1.122,3.537-2.757C60.392,3.998,58.668,2,56.5,2H34.006H32.5h-24 C6.575,2,5,3.575,5,5.5S6.575,9,8.5,9H10c1.105,0,2,0.895,2,2c0,1.105-0.895,2-2,2l-5.385,0c-1.67,0-3.195,1.122-3.537,2.757 C0.608,18.002,2.332,20,4.5,20H18v12L4.615,32c-1.67,0-3.195,1.122-3.537,2.757C0.608,37.002,2.332,39,4.5,39H5c1.105,0,2,0.895,2,2 c0,1.105-0.895,2-2,2H4.5c-2.168,0-3.892,1.998-3.422,4.243C1.42,48.878,2.945,50,4.615,50H10c1.105,0,2,0.895,2,2 c0,1.105-0.895,2-2,2l-1.385,0c-1.67,0-3.195,1.122-3.537,2.757C4.608,59.002,6.332,61,8.5,61h22.494H32.5h23 c1.925,0,3.5-1.575,3.5-3.5S57.425,54,55.5,54H55c-1.105,0-2-0.895-2-2c0-1.105,0.895-2,2-2h4.385c1.67,0,3.195-1.122,3.537-2.757 C63.392,44.998,61.668,43,59.5,43H47V31h12.385c1.67,0,3.195-1.122,3.537-2.757C63.392,25.998,61.668,24,59.5,24H59 c-1.105,0-2-0.895-2-2C57,20.895,57.895,20,59,20z"/><linearGradient id="rBVypQe~0poxNcMPXVFJob" x1="32" x2="32" y1="56" y2="6" gradientUnits="userSpaceOnUse" spreadMethod="reflect"><stop offset="0" stop-color="#ff634d"/><stop offset=".204" stop-color="#fe6464"/><stop offset=".521" stop-color="#fc6581"/><stop offset=".794" stop-color="#fa6694"/><stop offset=".989" stop-color="#fa669a"/><stop offset="1" stop-color="#fa669a"/></linearGradient><path fill="url(#rBVypQe~0poxNcMPXVFJob)" d="M57,31c0,13.805-11.195,25-25,25S7,44.805,7,31S18.195,6,32,6S57,17.195,57,31z"/><path fill="#fff" d="M37,16h-9c-4.418,0-8,3.582-8,8v7.492c0,2.271,0.773,4.474,2.191,6.247l4.694,5.868 c0.732,0.916,1.235,1.993,1.465,3.143l0.297,1.483C28.852,49.261,29.754,50,30.802,50h0C32.016,50,33,49.016,33,47.802v-2.101 c0-1.791-0.261-3.572-0.776-5.288L30,33L37,16z"/><path fill="#fff" d="M42,32h-2v2h2c1.1,0,2,0.9,2,2c0,1.1-0.9,2-2,2h-2v0h-1h-1H28v-8v-5v-9h6.749c0,0,0.001,0,0.001,0 H40c1.1,0,2,0.9,2,2c0,1.1-0.9,2-2,2h-2v2h3c1.1,0,2,0.9,2,2c0,1.1-0.9,2-2,2h-2v2h3c1.1,0,2,0.9,2,2C44,31.1,43.1,32,42,32z"/><path fill="#fff" d="M35 32h7c-.55 0-1 .45-1 1l0 0c0 .55.45 1 1 1h-7c.55 0 1-.45 1-1l0 0C36 32.45 35.55 32 35 32zM34 26h7c-.55 0-1 .45-1 1v0c0 .55.45 1 1 1h-7c.55 0 1-.45 1-1v0C35 26.45 34.55 26 34 26zM33 20h7c-.55 0-1 .45-1 1v0c0 .55.45 1 1 1h-7c.55 0 1-.45 1-1v0C34 20.45 33.55 20 33 20z"/></svg>