<?xml version="1.0" standalone="no"?><!DOCTYPE svg PUBLIC "-//W3C//DTD SVG 1.1//EN" "http://www.w3.org/Graphics/SVG/1.1/DTD/svg11.dtd"><svg class="icon" width="200px" height="200.00px" viewBox="0 0 1024 1024" version="1.1" xmlns="http://www.w3.org/2000/svg"><path d="M186.507767 58.401129h219.658814v363.906422H186.507767V58.401129z" fill="#E65352" /><path d="M406.167581 58.401129H625.826395v363.906422H406.167581V58.401129z" fill="#FAFAFA" /><path d="M625.826395 58.401129h219.657814v363.906422H625.826395V58.401129z" fill="#538DE7" /><path d="M264.302263 583.938282c0 139.006969 112.686756 251.692724 251.694725 251.692724 139.006969 0 251.692724-112.685756 251.692724-251.692724 0-139.003968-112.685756-251.695725-251.692724-251.695725-139.007969 0-251.694724 112.691756-251.694725 251.695725z" fill="#E88F09" /><path d="M515.996988 965.597871c-212.300916 0-384.407925-172.101008-384.407925-384.405925 0-212.297915 172.106009-384.407925 384.407925-384.407925s384.405925 172.11001 384.405924 384.407925c0 212.304916-172.105009 384.405925-384.405924 384.405925z m0-622.368973C384.571945 343.228898 278.03394 449.766903 278.03394 581.191946c0 131.428043 106.538005 237.967049 237.963048 237.967049 131.424043 0 237.961048-106.538005 237.961048-237.967049-0.001-131.425043-106.537005-237.963048-237.961048-237.963048z" fill="#FFB84D" /><path d="M518.376278 434.569048a98.097975 98.097975 0 0 0-68.642379 23.613883 93.709439 93.709439 0 0 0-31.854888 66.812155h43.202273a59.287237 59.287237 0 0 1 18.308235-39.901871 58.191103 58.191103 0 0 1 40.63296-13.364631 56.562905 56.562905 0 0 1 38.99076 11.71743 43.367294 43.367294 0 0 1 11.897452 32.579977 42.101139 42.101139 0 0 1-13.728676 33.50209 59.680285 59.680285 0 0 1-39.902871 11.71243h-21.05357v32.947022h20.868548a66.256088 66.256088 0 0 1 42.468184 12.995586 44.305408 44.305408 0 0 1 15.741922 36.611469 48.689944 48.689944 0 0 1-14.82581 36.611469 63.318729 63.318729 0 0 1-44.667453 16.105966 58.225108 58.225108 0 0 1-41.002005-14.458765 59.129218 59.129218 0 0 1-18.304234-44.667452h-44.296408a101.411379 101.411379 0 0 0 33.860134 73.221938 106.919052 106.919052 0 0 0 70.839647 22.516749 110.897537 110.897537 0 0 0 75.234184-25.812151 85.450431 85.450431 0 0 0 27.458352-65.163955 60.929438 60.929438 0 0 0-14.462766-41.919117 80.342807 80.342807 0 0 0-38.617714-23.795905c29.089551-6.900842 49.205006-33.461085 47.956854-63.335731a71.753759 71.753759 0 0 0-25.259083-57.661039 108.025187 108.025187 0 0 0-69.744514-20.867547h-1.097134z" fill="#FFFFFF" /></svg>