<svg xmlns="http://www.w3.org/2000/svg" viewBox="0 0 64 64"><radialGradient id="wPs4UMtSGyGpcTz5z3G02a" cx="32.501" cy="31.5" r="31.501" gradientUnits="userSpaceOnUse"><stop offset="0" stop-color="#b8efff"/><stop offset=".642" stop-color="#d4f6ff"/><stop offset="1" stop-color="#e5faff"/></radialGradient><path fill="url(#wPs4UMtSGyGpcTz5z3G02a)" d="M63.99,49.24c0.15,1.5-1.02,2.76-2.49,2.76h-10c-0.83,0-1.5,0.67-1.5,1.5s0.67,1.5,1.5,1.5 H56c2.33,0,4.22,2.03,3.98,4.41C59.77,61.49,57.9,63,55.81,63H5c-2.34,0-4.22-2.03-3.98-4.41C1.23,56.51,3.1,55,5.19,55H9 c1.1,0,2-0.9,2-2s-0.9-2-2-2H5.5c-1.6,0-2.86-1.52-2.41-3.18c0.3-1.1,1.36-1.82,2.5-1.82H22V36H5c-2.34,0-4.22-2.03-3.98-4.41 C1.23,29.51,3.1,28,5.19,28h9.31c1.93,0,3.5-3.57,3.5-5.5S16.43,19,14.5,19H6c-2.34,0-4.22-2.03-3.98-4.41 C2.23,12.51,4.1,11,6.19,11H20c0.83,0,1.58-0.34,2.12-0.88S23,8.83,23,8c0-1.66-1.34-3-3-3h-4.5c-1.47,0-2.64-1.26-2.49-2.76 C13.14,0.94,14.34,0,15.64,0H48.5c1.47,0,2.64,1.26,2.49,2.76C50.86,4.06,49.66,5,48.36,5H44.5c-0.96,0-1.84,0.39-2.47,1.03 C41.39,6.66,41,7.54,41,8.5c0,1.93,1.57,3.5,3.5,3.5h13c1.47,0,2.64,1.26,2.49,2.76c-0.13,1.3-1.33,2.24-2.63,2.24H46 c-1.1,0-2-0.1-2,1s0.9,4,2,4h9.81c2.09,0,3.96,1.51,4.17,3.59C60.22,27.97,58.33,30,56,30H42v8h18.5c1.6,0,2.85,1.52,2.41,3.18 c-0.3,1.1-1.36,1.82-2.5,1.82H60c-1.1,0-2,0.9-2,2s0.9,2,2,2h1.36C62.67,47,63.86,47.94,63.99,49.24z"/><linearGradient id="wPs4UMtSGyGpcTz5z3G02b" x1="32" x2="32" y1="14.381" y2="56.876" gradientTransform="matrix(1 0 0 -1 0 66)" gradientUnits="userSpaceOnUse"><stop offset="0" stop-color="#e3714d"/><stop offset=".25" stop-color="#e4754e"/><stop offset="1" stop-color="#e77b50"/></linearGradient><path fill="url(#wPs4UMtSGyGpcTz5z3G02b)" d="M55,37.59V52c0,1.66-1.34,3-3,3H12c-1.66,0-3-1.34-3-3V37.6c0-0.88,0.11-1.75,0.32-2.6 c0.19-0.8,0.47-1.58,0.84-2.32l1.95-3.89c0.56-1.13,0.56-2.45,0-3.58l-1.87-3.73C9.85,20.7,9.61,19.86,9.53,19 c-0.08-0.89,0.01-1.79,0.27-2.66l0.49-1.64C11.3,11.32,14.42,9,17.95,9h28.1c3.53,0,6.65,2.32,7.66,5.7l0.49,1.64 c0.26,0.87,0.35,1.77,0.26,2.66c-0.08,0.86-0.32,1.7-0.71,2.49l-1.85,3.7c-0.57,1.13-0.57,2.45-0.01,3.58l1.95,3.91 c0.37,0.74,0.65,1.52,0.84,2.32C54.89,35.85,55,36.72,55,37.59z"/><linearGradient id="wPs4UMtSGyGpcTz5z3G02c" x1="32" x2="32" y1="-7.936" y2="41.875" gradientTransform="matrix(1 0 0 -1 0 66)" gradientUnits="userSpaceOnUse"><stop offset="0" stop-color="#a4a4a4"/><stop offset=".63" stop-color="#7f7f7f"/><stop offset="1" stop-color="#6f6f6f"/><stop offset="1" stop-color="#6f6f6f"/></linearGradient><path fill="url(#wPs4UMtSGyGpcTz5z3G02c)" d="M55,37.59V39H9v-1.4c0-0.88,0.11-1.75,0.32-2.6c0.19-0.8,0.47-1.58,0.84-2.32l1.95-3.89 c0.56-1.13,0.56-2.45,0-3.58l-1.87-3.73C9.85,20.7,9.61,19.86,9.53,19h44.93c-0.08,0.86-0.32,1.7-0.71,2.49l-1.85,3.7 c-0.57,1.13-0.57,2.45-0.01,3.58l1.95,3.91c0.37,0.74,0.65,1.52,0.84,2.32C54.89,35.85,55,36.72,55,37.59z"/><linearGradient id="wPs4UMtSGyGpcTz5z3G02d" x1="31.985" x2="31.985" y1="10.191" y2="43.471" gradientTransform="matrix(1 0 0 -1 0 66)" gradientUnits="userSpaceOnUse"><stop offset="0" stop-color="#feaa53"/><stop offset=".612" stop-color="#ffcd49"/><stop offset="1" stop-color="#ffde44"/></linearGradient><path fill="url(#wPs4UMtSGyGpcTz5z3G02d)" d="M50.97,39H13c0-2.13,1.34-3.93,3.21-4.66C16.69,32.98,17.97,32,19.5,32 c0.17,0,0.34,0.03,0.51,0.05C20,32.03,20,32.02,20,32c0-1.66,1.34-3,3-3c0.5,0,0.96,0.13,1.37,0.34C25,27.96,26.38,27,28,27 c0.06,0,0.12,0.02,0.18,0.02C28.59,25.85,29.69,25,31,25c1.33,0,2.44,0.87,2.84,2.06c1.49,0.21,2.82,0.97,3.75,2.08 C37.88,29.06,38.18,29,38.5,29c1.5,0,2.77,0.95,3.27,2.27C42.14,31.1,42.56,31,43,31c1.66,0,3,1.34,3,3v0.03 C48.63,34.27,50.74,36.36,50.97,39z"/><linearGradient id="wPs4UMtSGyGpcTz5z3G02e" x1="32" x2="32" y1="41.723" y2="56.954" gradientTransform="matrix(1 0 0 -1 0 66)" gradientUnits="userSpaceOnUse"><stop offset="0" stop-color="#ffa241"/><stop offset=".926" stop-color="#ffaf6c"/><stop offset="1" stop-color="#ffb070"/><stop offset="1" stop-color="#ffb070"/></linearGradient><path fill="url(#wPs4UMtSGyGpcTz5z3G02e)" d="M32,13L32,13c3.314,0,6,2.686,6,6l0,0H26l0,0C26,15.686,28.686,13,32,13z"/><linearGradient id="wPs4UMtSGyGpcTz5z3G02f" x1="32" x2="32" y1="9.936" y2="29.087" gradientTransform="matrix(1 0 0 -1 0 66)" gradientUnits="userSpaceOnUse"><stop offset="0" stop-color="#ffa241"/><stop offset=".926" stop-color="#ffaf6c"/><stop offset="1" stop-color="#ffb070"/><stop offset="1" stop-color="#ffb070"/></linearGradient><path fill="url(#wPs4UMtSGyGpcTz5z3G02f)" d="M32,52L32,52c-3.314,0-6-2.686-6-6v-7h12v7C38,49.314,35.314,52,32,52z"/><linearGradient id="wPs4UMtSGyGpcTz5z3G02g" x1="32" x2="32" y1="-6.915" y2="24.858" gradientTransform="matrix(1 0 0 -1 0 66)" gradientUnits="userSpaceOnUse"><stop offset="0" stop-color="#a4a4a4"/><stop offset=".63" stop-color="#7f7f7f"/><stop offset="1" stop-color="#6f6f6f"/><stop offset="1" stop-color="#6f6f6f"/></linearGradient><path fill="url(#wPs4UMtSGyGpcTz5z3G02g)" d="M35,45c0-1.657-1.343-3-3-3s-3,1.343-3,3c0,1.304,0.837,2.403,2,2.816V49 c0,0.552,0.448,1,1,1c0.552,0,1-0.448,1-1v-1.184C34.163,47.403,35,46.304,35,45z"/><linearGradient id="wPs4UMtSGyGpcTz5z3G02h" x1="13.5" x2="13.5" y1="4.787" y2="24.223" gradientTransform="matrix(1 0 0 -1 0 66)" gradientUnits="userSpaceOnUse"><stop offset="0" stop-color="#ffa241"/><stop offset=".926" stop-color="#ffaf6c"/><stop offset="1" stop-color="#ffb070"/><stop offset="1" stop-color="#ffb070"/></linearGradient><path fill="url(#wPs4UMtSGyGpcTz5z3G02h)" d="M18,55h-6c-1.66,0-3-1.34-3-3v-6C13.97,46,18,50.03,18,55z"/><linearGradient id="wPs4UMtSGyGpcTz5z3G02i" x1="50.5" x2="50.5" y1="4.787" y2="24.223" gradientTransform="matrix(1 0 0 -1 0 66)" gradientUnits="userSpaceOnUse"><stop offset="0" stop-color="#ffa241"/><stop offset=".926" stop-color="#ffaf6c"/><stop offset="1" stop-color="#ffb070"/><stop offset="1" stop-color="#ffb070"/></linearGradient><path fill="url(#wPs4UMtSGyGpcTz5z3G02i)" d="M55,46v6c0,1.66-1.34,3-3,3h-6C46,50.03,50.03,46,55,46z"/></svg>