<?xml version="1.0" standalone="no"?><!DOCTYPE svg PUBLIC "-//W3C//DTD SVG 1.1//EN" "http://www.w3.org/Graphics/SVG/1.1/DTD/svg11.dtd"><svg class="icon" width="200px" height="200.00px" viewBox="0 0 1024 1024" version="1.1" xmlns="http://www.w3.org/2000/svg"><path d="M680 297H296c-17.7 0-32-14.3-32-32s14.3-32 32-32h384c17.7 0 32 14.3 32 32s-14.3 32-32 32zM392 473h-96c-17.7 0-32-14.3-32-32s14.3-32 32-32h96c17.7 0 32 14.3 32 32s-14.3 32-32 32z" fill="#3688FF" /><path d="M824 953H205.3C140.6 953 88 900.9 88 837V173c0-64 52.6-116 117.3-116h597.3C867.4 57 920 109.1 920 173v685.6c0 52.1-43.1 94.4-96 94.4zM205.3 121c-29.4 0-53.3 23.3-53.3 52v664c0 28.7 23.9 52 53.3 52H824c17.6 0 32-13.6 32-30.4V173c0-28.7-23.9-52-53.3-52H205.3z" fill="#3688FF" /><path d="M776 793c-8.2 0-16.4-3.1-22.6-9.4l-80-80c-12.5-12.5-12.5-32.8 0-45.3s32.8-12.5 45.3 0l80 80c12.5 12.5 12.5 32.8 0 45.3-6.3 6.3-14.5 9.4-22.7 9.4z" fill="#3688FF" /><path d="M584 729c-88.2 0-160-71.8-160-160s71.8-160 160-160 160 71.8 160 160-71.8 160-160 160z m0-256c-52.9 0-96 43.1-96 96s43.1 96 96 96 96-43.1 96-96-43.1-96-96-96z" fill="#3688FF" /></svg>